<?xml version="1.0" encoding="UTF-8"?>
<!DOCTYPE svg PUBLIC "-//W3C//DTD SVG 1.1//EN" "http://www.w3.org/Graphics/SVG/1.1/DTD/svg11.dtd">
<svg xmlns="http://www.w3.org/2000/svg" version="1.1" width="115px" height="139px" style="shape-rendering:geometricPrecision; text-rendering:geometricPrecision; image-rendering:optimizeQuality; fill-rule:evenodd; clip-rule:evenodd" xmlns:xlink="http://www.w3.org/1999/xlink">
<g><path style="opacity:1" fill="#060404" d="M 50.5,9.5 C 60.1724,9.33353 69.8391,9.5002 79.5,10C 81.0071,11.4733 81.6738,13.3066 81.5,15.5C 81.2161,18.9197 80.5494,22.253 79.5,25.5C 87.4557,26.0609 93.9557,29.3942 99,35.5C 102.176,41.3284 105.176,47.3284 108,53.5C 108.945,69.0504 102.112,74.0504 87.5,68.5C 86.6733,66.838 85.5067,65.5046 84,64.5C 82.7801,60.5995 81.1134,56.9328 79,53.5C 77.5064,52.2528 76.0064,52.2528 74.5,53.5C 71,59.1667 67.5,64.8333 64,70.5C 60.6276,80.3846 59.1276,90.3846 59.5,100.5C 61.6862,107.257 66.0195,109.091 72.5,106C 78.2969,102.85 83.9635,99.5164 89.5,96C 103.084,92.5947 109.251,97.7614 108,111.5C 106.319,113.548 104.819,115.715 103.5,118C 94.7457,124.387 85.079,129.054 74.5,132C 57.9896,135.065 45.4896,129.565 37,115.5C 34.8424,107.656 34.009,99.6561 34.5,91.5C 28.8236,91.6661 23.1569,91.4994 17.5,91C 17,90.5 16.5,90 16,89.5C 18.1676,73.8208 20.6676,58.1542 23.5,42.5C 18.8215,42.6658 14.1548,42.4992 9.5,42C 9,41.5 8.5,41 8,40.5C 7.38206,34.2562 8.54873,28.4229 11.5,23C 22.1667,22.6667 32.8333,22.3333 43.5,22C 44.4162,21.6258 45.2496,21.1258 46,20.5C 47.0526,16.5901 48.5526,12.9234 50.5,9.5 Z"/></g>
<g><path style="opacity:1" fill="#ef2a24" d="M 52.5,13.5 C 60.8599,13.1688 69.1932,13.5021 77.5,14.5C 76.3055,20.2496 74.8055,25.9163 73,31.5C 67.5841,36.6521 61.0841,38.9854 53.5,38.5C 50.63,54.8504 47.63,71.1837 44.5,87.5C 36.5,87.5 28.5,87.5 20.5,87.5C 23.1135,71.0988 26.1135,54.7655 29.5,38.5C 23.8333,38.5 18.1667,38.5 12.5,38.5C 12.2391,34.658 12.9058,30.9913 14.5,27.5C 26.2222,26.9372 37.8889,26.1039 49.5,25C 51.1896,21.3792 52.1896,17.5459 52.5,13.5 Z"/></g>
<g><path style="opacity:1" fill="#7f7f7f" d="M 55.5,108.5 C 56.3534,111.518 58.3534,113.351 61.5,114C 64.5,114.667 67.5,114.667 70.5,114C 71.4158,113.722 72.0825,113.222 72.5,112.5C 79.4177,110.041 85.7511,106.541 91.5,102C 99.0445,100.381 102.044,103.214 100.5,110.5C 88.7101,120.828 75.0434,125.994 59.5,126C 52.9739,124.635 47.9739,121.135 44.5,115.5C 41.1403,107.499 39.807,99.1652 40.5,90.5C 43.1194,90.7683 45.6194,90.435 48,89.5C 50.1522,75.4053 52.8189,61.4053 56,47.5C 57.8897,42.1635 61.723,39.9968 67.5,41C 71.1212,39.3687 74.1212,37.0354 76.5,34C 82.5137,33.5887 88.0137,35.0887 93,38.5C 95.2943,42.2545 97.4609,46.0879 99.5,50C 101.218,53.6891 101.718,57.5225 101,61.5C 98.7897,64.2896 95.9563,65.123 92.5,64C 89.7607,59.3549 87.4274,54.5216 85.5,49.5C 78.1314,43.5698 71.6314,44.5698 66,52.5C 63.4005,58.0893 60.4005,63.4227 57,68.5C 53.0795,81.7433 52.5795,95.0767 55.5,108.5 Z"/></g>
<g><path style="opacity:1" fill="#2f2f2f" d="M 55.5,108.5 C 56.9616,109.458 58.2949,110.624 59.5,112C 63.8206,112.499 68.1539,112.666 72.5,112.5C 72.0825,113.222 71.4158,113.722 70.5,114C 67.5,114.667 64.5,114.667 61.5,114C 58.3534,113.351 56.3534,111.518 55.5,108.5 Z"/></g>
</svg>
