<?xml version="1.0" encoding="UTF-8"?>
<!DOCTYPE svg PUBLIC "-//W3C//DTD SVG 1.1//EN" "http://www.w3.org/Graphics/SVG/1.1/DTD/svg11.dtd">
<svg xmlns="http://www.w3.org/2000/svg" version="1.1" width="550px" height="600px" style="shape-rendering:geometricPrecision; text-rendering:geometricPrecision; image-rendering:optimizeQuality; fill-rule:evenodd; clip-rule:evenodd" xmlns:xlink="http://www.w3.org/1999/xlink">
<g><path style="opacity:1" fill="#0b0b0a" d="M 179.5,459.5 C 181.411,459.426 182.578,458.426 183,456.5C 185.23,450.224 186.064,443.89 185.5,437.5C 185.5,436.833 185.5,436.167 185.5,435.5C 186.244,429.849 187.911,424.516 190.5,419.5C 183.044,418.18 175.711,415.68 168.5,412C 166.872,408.397 166.038,404.563 166,400.5C 158.021,395.021 151.187,388.354 145.5,380.5C 143.257,379.526 140.924,379.192 138.5,379.5C 137.833,379.5 137.167,379.5 136.5,379.5C 135.5,379.167 134.833,378.5 134.5,377.5C 136.305,375.803 138.639,374.97 141.5,375C 135.833,374.833 130.167,374.667 124.5,374.5C 118.334,374.352 112.334,374.852 106.5,376C 113.679,376.171 120.679,376.671 127.5,377.5C 124.218,377.981 121.051,378.981 118,380.5C 117.413,384.31 117.913,387.977 119.5,391.5C 118.504,391.414 117.671,391.748 117,392.5C 116.333,395.833 116.333,399.167 117,402.5C 118.338,405.318 119.838,407.985 121.5,410.5C 121.124,412.383 120.124,413.883 118.5,415C 109.256,415.181 100.089,415.681 91,416.5C 72.9068,415.674 54.7402,415.174 36.5,415C 33.5332,412.9 31.6998,410.066 31,406.5C 27.446,379.781 27.7793,353.114 32,326.5C 32.5163,323.966 33.683,321.8 35.5,320C 59.1649,319.194 82.6649,318.028 106,316.5C 107.057,307.625 108.724,298.959 111,290.5C 109.954,288.91 108.787,287.41 107.5,286C 92.899,274.406 78.5657,262.406 64.5,250C 59.8844,246.302 58.7178,241.802 61,236.5C 75.1955,216.632 90.5289,197.632 107,179.5C 109.537,176.628 112.37,174.128 115.5,172C 118.438,171.288 121.104,171.788 123.5,173.5C 137.281,187.444 151.615,200.944 166.5,214C 167.833,214.667 169.167,214.667 170.5,214C 178.4,208.438 186.566,203.272 195,198.5C 194.297,192.255 191.797,186.755 187.5,182C 184.445,181.241 181.945,182.074 180,184.5C 179.439,183.978 178.772,183.645 178,183.5C 172.064,184.973 166.564,187.307 161.5,190.5C 160.252,189.96 159.085,189.293 158,188.5C 146.405,163.814 135.238,138.98 124.5,114C 126.055,110.439 128.388,107.439 131.5,105C 145.513,96.6586 159.846,88.8253 174.5,81.5C 176.651,73.2486 178.484,64.9153 180,56.5C 181.292,54.7513 182.458,52.918 183.5,51C 185.246,50.5291 186.913,49.8624 188.5,49C 243.177,48.4055 297.844,48.4055 352.5,49C 353.333,48.1667 354.167,47.3333 355,46.5C 355.714,37.5035 356.381,28.5035 357,19.5C 358.198,16.6338 360.365,14.8005 363.5,14C 391.012,12.9578 418.512,12.1245 446,11.5C 451.851,11.6937 455.685,14.527 457.5,20C 453.621,35.0172 450.454,50.1838 448,65.5C 445.193,76.6222 439.693,86.1222 431.5,94C 425.625,98.4381 419.292,102.105 412.5,105C 427.176,114.008 441.01,124.175 454,135.5C 454.667,136.833 454.667,138.167 454,139.5C 440.365,162.614 425.865,185.114 410.5,207C 408.5,207.667 406.5,207.667 404.5,207C 403.128,204.467 402.128,201.8 401.5,199C 394.773,196.777 387.94,194.943 381,193.5C 377.356,195.33 374.856,198.33 373.5,202.5C 383.231,208.722 392.564,215.555 401.5,223C 404.88,223.938 407.88,223.271 410.5,221C 419.412,213.587 428.746,206.754 438.5,200.5C 442.106,202.603 445.273,205.269 448,208.5C 465.666,229.825 480.832,252.825 493.5,277.5C 493.06,280.214 491.726,282.38 489.5,284C 474.824,294.003 460.157,304.003 445.5,314C 441.405,316.574 441.572,318.407 446,319.5C 450.54,319.147 454.873,318.147 459,316.5C 460.4,317.116 461.9,317.449 463.5,317.5C 479.203,316.579 494.87,315.245 510.5,313.5C 514.92,314.082 518.087,316.415 520,320.5C 524.874,346.768 526.874,373.434 526,400.5C 525.836,405.003 523.67,408.17 519.5,410C 494.076,410.598 469.242,412.765 445,416.5C 438.884,416.388 436.551,413.388 438,407.5C 440.565,405.037 442.065,402.037 442.5,398.5C 440.491,391.477 438.491,384.477 436.5,377.5C 430.5,377.5 424.5,377.5 418.5,377.5C 418.237,386.177 417.737,394.843 417,403.5C 416.466,407.768 415.133,411.768 413,415.5C 411.581,416.46 410.081,417.293 408.5,418C 400.744,419.366 393.244,421.199 386,423.5C 384.094,422.869 382.094,422.536 380,422.5C 377.698,422.6 375.698,423.267 374,424.5C 371.017,423.083 367.85,422.25 364.5,422C 362.833,421 361.167,420 359.5,419C 357.885,411.298 356.719,403.465 356,395.5C 353.608,389.774 349.774,385.274 344.5,382C 322.218,375.189 303.052,380.689 287,398.5C 285,402.5 283,406.5 281,410.5C 270.468,438.76 262.801,467.76 258,497.5C 254.769,508.161 257.936,515.994 267.5,521C 276.758,522.584 286.091,522.917 295.5,522C 297.061,521.682 298.228,520.849 299,519.5C 300.714,520.925 302.047,520.592 303,518.5C 305.787,519.685 308.12,519.018 310,516.5C 310.561,517.022 311.228,517.355 312,517.5C 330.556,510.639 348.056,501.806 364.5,491C 380.029,479.972 395.696,469.138 411.5,458.5C 414.094,459.592 416.261,461.259 418,463.5C 430.918,482.326 430.251,500.659 416,518.5C 389.795,545.229 359.128,563.229 324,572.5C 311.014,575.564 298.014,578.23 285,580.5C 280.604,578.609 276.104,578.276 271.5,579.5C 264.493,578.68 257.493,577.68 250.5,576.5C 216.573,570.48 194.073,550.147 183,515.5C 178.251,498.35 177.418,481.016 180.5,463.5C 180.377,462.075 180.043,460.742 179.5,459.5 Z M 262.5,109.5 C 258.046,134.636 252.379,159.302 245.5,183.5C 238.196,183.881 231.196,185.214 224.5,187.5C 221.122,181.751 217.956,175.751 215,169.5C 214.009,167.553 213.675,165.553 214,163.5C 218.391,159.388 223.224,155.888 228.5,153C 231.656,152.397 234.656,152.897 237.5,154.5C 240.755,153.415 242.755,151.248 243.5,148C 238.81,135.463 233.477,123.296 227.5,111.5C 227.5,110.5 227.5,109.5 227.5,108.5C 239.129,109.436 250.796,109.77 262.5,109.5 Z M 349.5,130.5 C 347.797,131.66 347.131,130.993 347.5,128.5C 348.831,121.84 350.165,115.173 351.5,108.5C 354.187,108.336 356.854,108.503 359.5,109C 359.957,109.414 360.291,109.914 360.5,110.5C 356.301,116.9 352.634,123.567 349.5,130.5 Z M 338.5,166.5 C 344.884,168.727 350.551,172.06 355.5,176.5C 352.624,181.086 349.624,185.586 346.5,190C 342.445,190.156 338.445,189.656 334.5,188.5C 335.961,181.193 337.295,173.859 338.5,166.5 Z M 241.5,209.5 C 240.883,211.68 239.883,213.68 238.5,215.5C 237.479,214.099 236.479,212.765 235.5,211.5C 235.577,210.25 236.244,209.417 237.5,209C 239.066,208.235 240.399,208.402 241.5,209.5 Z M 198.5,224.5 C 197.508,224.672 196.842,224.338 196.5,223.5C 198.941,222.443 201.275,221.11 203.5,219.5C 204.645,220.776 204.645,222.109 203.5,223.5C 201.872,223.579 200.205,223.912 198.5,224.5 Z M 431.5,347.5 C 425.833,347.5 420.167,347.5 414.5,347.5C 414.817,343.298 414.483,339.298 413.5,335.5C 413.106,329.703 411.272,324.37 408,319.5C 404.049,314.563 399.882,309.897 395.5,305.5C 397.489,302.655 400.156,301.488 403.5,302C 407.905,306.283 412.405,310.45 417,314.5C 417.291,319.189 417.291,323.856 417,328.5C 420.449,332.153 424.283,332.486 428.5,329.5C 428.833,329.833 429.167,330.167 429.5,330.5C 430.604,336.101 431.271,341.768 431.5,347.5 Z"/></g>
<g><path style="opacity:1" fill="#d62418" d="M 321.5,199.5 C 319.408,196.319 317.075,193.319 314.5,190.5C 308.131,189.877 301.965,191.21 296,194.5C 295.59,195.901 295.09,197.234 294.5,198.5C 292.475,200.196 290.475,201.863 288.5,203.5C 280.511,206.827 272.511,210.16 264.5,213.5C 261.52,213.62 258.687,214.287 256,215.5C 255.667,214.833 255.333,214.167 255,213.5C 253.951,215.107 252.451,215.773 250.5,215.5C 249.286,214.374 248.286,213.041 247.5,211.5C 255.048,175.919 263.048,140.586 271.5,105.5C 272.434,104.432 272.768,103.099 272.5,101.5C 261.5,101.5 250.5,101.5 239.5,101.5C 225.327,101.512 211.16,101.845 197,102.5C 192.167,102.167 187.333,101.833 182.5,101.5C 181.5,99.8333 180.167,98.5 178.5,97.5C 180.497,83.6828 183.33,70.0162 187,56.5C 188.351,54.981 189.851,53.6477 191.5,52.5C 192.192,53.0253 192.692,53.6919 193,54.5C 194.009,53.3418 195.342,52.6752 197,52.5C 221.705,54.6898 246.371,55.0231 271,53.5C 271.945,53.9054 272.612,54.572 273,55.5C 274.333,52.8333 275.667,52.8333 277,55.5C 278.067,54.8095 279.234,54.3095 280.5,54C 305.167,53.6667 329.833,53.3333 354.5,53C 355.931,52.5348 357.097,51.7014 358,50.5C 358.898,40.8209 359.898,31.1542 361,21.5C 362.214,19.9512 363.714,18.7845 365.5,18C 392.876,17.8248 420.209,17.3248 447.5,16.5C 449.149,17.6477 450.649,18.981 452,20.5C 449.22,33.3958 446.554,46.3958 444,59.5C 443.422,62.9033 442.255,66.0699 440.5,69C 440.957,69.414 441.291,69.914 441.5,70.5C 435.833,82.6419 427.5,91.8086 416.5,98C 411.625,99.802 406.625,101.135 401.5,102C 383.355,102.649 365.188,102.483 347,101.5C 340.165,132.51 333.165,163.51 326,194.5C 325.303,196.923 323.803,198.589 321.5,199.5 Z"/></g>
<g><path style="opacity:1" fill="#6f746e" d="M 170.5,87.5 C 171.5,87.5 172.5,87.5 173.5,87.5C 173.768,90.1194 173.435,92.6194 172.5,95C 157.866,102.146 143.866,110.313 130.5,119.5C 128.554,117.956 128.054,115.956 129,113.5C 130.599,111.944 132.099,110.277 133.5,108.5C 145.369,100.731 157.702,93.7308 170.5,87.5 Z"/></g>
<g><path style="opacity:1" fill="#6f7470" d="M 170.5,98.5 C 174.04,98.3765 176.04,100.043 176.5,103.5C 160.836,109.411 146.67,117.744 134,128.5C 132.916,127.335 132.083,126.002 131.5,124.5C 143.108,115.018 155.775,107.018 169.5,100.5C 170.298,100.043 170.631,99.3764 170.5,98.5 Z"/></g>
<g><path style="opacity:1" fill="#640c0c" d="M 239.5,101.5 C 250.5,101.5 261.5,101.5 272.5,101.5C 272.768,103.099 272.434,104.432 271.5,105.5C 271.5,104.5 271.5,103.5 271.5,102.5C 260.654,102.828 249.987,102.494 239.5,101.5 Z"/></g>
<g><path style="opacity:1" fill="#707570" d="M 177.5,105.5 C 180.26,106.192 182.927,107.192 185.5,108.5C 170.272,114.258 156.439,122.258 144,132.5C 141.587,133.024 139.42,134.024 137.5,135.5C 135.899,134.965 135.399,133.965 136,132.5C 139.845,128.49 144.011,124.823 148.5,121.5C 158.05,115.893 167.717,110.56 177.5,105.5 Z"/></g>
<g><path style="opacity:1" fill="#6f746f" d="M 228.5,134.5 C 229.462,137.757 230.962,140.757 233,143.5C 233.108,140.313 232.275,137.313 230.5,134.5C 230.855,133.478 231.522,132.811 232.5,132.5C 235.203,137.414 237.537,142.58 239.5,148C 239.167,148.333 238.833,148.667 238.5,149C 231.291,147.376 224.124,145.542 217,143.5C 193.659,146.229 176.159,157.562 164.5,177.5C 164.657,176.127 164.49,174.793 164,173.5C 158.47,160.448 152.97,147.448 147.5,134.5C 148.894,132.519 150.727,130.852 153,129.5C 159.062,126.553 164.895,123.22 170.5,119.5C 174.493,117.802 175.16,118.468 172.5,121.5C 172.833,121.833 173.167,122.167 173.5,122.5C 175.833,121 178.167,119.5 180.5,118C 179.167,117.667 177.833,117.333 176.5,117C 187.182,110.499 198.849,107.332 211.5,107.5C 213.481,107.437 215.148,108.104 216.5,109.5C 220.155,117.986 224.155,126.319 228.5,134.5 Z"/></g>
<g><path style="opacity:1" fill="#6e746e" d="M 439.5,128.5 C 436.916,129.048 435.916,130.715 436.5,133.5C 423.888,125.648 411.555,117.314 399.5,108.5C 402.784,107.343 406.118,107.176 409.5,108C 420.227,113.915 430.227,120.748 439.5,128.5 Z"/></g>
<g><path style="opacity:1" fill="#575857" d="M 262.5,109.5 C 250.796,109.77 239.129,109.436 227.5,108.5C 227.5,109.5 227.5,110.5 227.5,111.5C 226.566,110.432 226.232,109.099 226.5,107.5C 238.654,108.061 250.654,108.727 262.5,109.5 Z"/></g>
<g><path style="opacity:1" fill="#717671" d="M 438.5,140.5 C 437.167,140.5 435.833,140.5 434.5,140.5C 434.5,141.5 434.5,142.5 434.5,143.5C 428.343,139.67 422.676,135.17 417.5,130C 406.071,123.186 394.738,116.186 383.5,109C 385.833,108.333 388.167,108.333 390.5,109C 398.5,113.667 406.5,118.333 414.5,123C 422.962,128.31 430.962,134.143 438.5,140.5 Z"/></g>
<g><path style="opacity:1" fill="#514f4d" d="M 375.5,110.5 C 373.447,110.402 371.78,111.069 370.5,112.5C 366.46,111.812 365.96,110.479 369,108.5C 371.277,109.117 373.444,109.784 375.5,110.5 Z"/></g>
<g><path style="opacity:1" fill="#c1c1c1" d="M 375.5,110.5 C 377.5,111.5 379.5,112.5 381.5,113.5C 381.843,115.483 381.176,116.817 379.5,117.5C 376.262,116.262 373.262,114.596 370.5,112.5C 371.78,111.069 373.447,110.402 375.5,110.5 Z"/></g>
<g><path style="opacity:1" fill="#6d726d" d="M 381.5,113.5 C 400.641,123.572 418.641,135.406 435.5,149C 436.413,151.333 437.913,153.166 440,154.5C 440.18,156.488 440.014,158.488 439.5,160.5C 437.567,160.271 435.9,159.438 434.5,158C 431.316,152.989 426.983,149.156 421.5,146.5C 418.281,142.445 414.614,138.945 410.5,136C 400.053,129.864 389.72,123.697 379.5,117.5C 381.176,116.817 381.843,115.483 381.5,113.5 Z"/></g>
<g><path style="opacity:1" fill="#6f746f" d="M 374.5,120.5 C 373.5,120.5 372.5,120.5 371.5,120.5C 371.54,123.425 370.707,126.091 369,128.5C 363.414,137.339 357.581,146.006 351.5,154.5C 354.372,155.783 357.205,155.783 360,154.5C 366.522,144.11 373.022,133.777 379.5,123.5C 385.482,126.825 391.482,130.159 397.5,133.5C 383.788,133.046 377.288,139.713 378,153.5C 381.043,163.211 387.543,167.044 397.5,165C 402.231,162.516 404.897,159.016 405.5,154.5C 403.162,157.703 400.496,160.537 397.5,163C 389.459,165.063 383.959,162.23 381,154.5C 378.365,142.312 383.199,136.312 395.5,136.5C 398.423,137.295 401.09,138.628 403.5,140.5C 403.5,139.5 403.5,138.5 403.5,137.5C 404.855,138.188 405.855,139.188 406.5,140.5C 405.778,140.918 405.278,141.584 405,142.5C 404.586,142.043 404.086,141.709 403.5,141.5C 401.915,144.913 402.415,147.913 405,150.5C 405.594,146.182 407.094,145.682 409.5,149C 413.933,149.421 417.933,150.921 421.5,153.5C 422.107,153.376 422.44,153.043 422.5,152.5C 424.23,153.026 425.564,154.026 426.5,155.5C 420.98,167.524 414.147,178.857 406,189.5C 405.517,190.448 405.351,191.448 405.5,192.5C 404.108,190.727 402.941,188.727 402,186.5C 397,182.426 392.5,177.926 388.5,173C 381.895,168.43 375.062,164.263 368,160.5C 359.2,158.522 350.367,158.189 341.5,159.5C 340.289,156.124 340.456,152.791 342,149.5C 348.273,137.425 355.606,126.092 364,115.5C 367.628,117.088 371.128,118.754 374.5,120.5 Z"/></g>
<g><path style="opacity:1" fill="#535454" d="M 232.5,132.5 C 231.522,132.811 230.855,133.478 230.5,134.5C 232.275,137.313 233.108,140.313 233,143.5C 230.962,140.757 229.462,137.757 228.5,134.5C 229.598,133.399 229.765,132.066 229,130.5C 225.93,123.79 222.763,117.124 219.5,110.5C 219.833,110.167 220.167,109.833 220.5,109.5C 224.753,117.005 228.753,124.671 232.5,132.5 Z"/></g>
<g><path style="opacity:1" fill="#161616" d="M 363.5,119.5 C 365.484,119.383 367.15,120.05 368.5,121.5C 362.454,130.989 356.621,140.656 351,150.5C 349.614,153.616 347.448,154.616 344.5,153.5C 350.845,142.139 357.179,130.806 363.5,119.5 Z"/></g>
<g><path style="opacity:1" fill="#040404" d="M 185.5,121.5 C 187.806,123.139 189.806,125.139 191.5,127.5C 193.24,132.892 192.24,137.725 188.5,142C 176.232,144.4 171.065,139.234 173,126.5C 175.683,121.074 179.85,119.407 185.5,121.5 Z"/></g>
<g><path style="opacity:1" fill="#b7b7b6" d="M 191.5,127.5 C 189.806,125.139 187.806,123.139 185.5,121.5C 185.389,120.883 185.056,120.383 184.5,120C 188.672,119.132 191.838,120.632 194,124.5C 194.862,127.543 194.029,128.543 191.5,127.5 Z"/></g>
<g><path style="opacity:1" fill="#6f6f70" d="M 347.5,128.5 C 347.131,130.993 347.797,131.66 349.5,130.5C 349.315,132.196 348.481,133.529 347,134.5C 346.211,132.288 346.378,130.288 347.5,128.5 Z"/></g>
<g><path style="opacity:1" fill="#c4c4c4" d="M 439.5,128.5 C 441.754,129.415 443.754,130.748 445.5,132.5C 446.405,133.964 446.405,135.298 445.5,136.5C 445.5,136.833 445.5,137.167 445.5,137.5C 444.609,138.11 443.609,138.443 442.5,138.5C 440.475,136.804 438.475,135.137 436.5,133.5C 435.916,130.715 436.916,129.048 439.5,128.5 Z"/></g>
<g><path style="opacity:1" fill="#b1b1b1" d="M 208.5,111.5 C 209.708,110.218 211.042,110.218 212.5,111.5C 217.228,121.956 222.228,132.289 227.5,142.5C 227,142.833 226.5,143.167 226,143.5C 220.42,132.671 214.586,122.004 208.5,111.5 Z"/></g>
<g><path style="opacity:1" fill="#8a8a8c" d="M 445.5,132.5 C 448.765,134.022 450.098,136.355 449.5,139.5C 448.717,137.712 447.384,136.712 445.5,136.5C 446.405,135.298 446.405,133.964 445.5,132.5 Z"/></g>
<g><path style="opacity:1" fill="#b4b3b4" d="M 374.5,120.5 C 376.368,121.263 378.035,122.263 379.5,123.5C 373.022,133.777 366.522,144.11 360,154.5C 357.205,155.783 354.372,155.783 351.5,154.5C 357.581,146.006 363.414,137.339 369,128.5C 370.707,126.091 371.54,123.425 371.5,120.5C 372.5,120.5 373.5,120.5 374.5,120.5 Z"/></g>
<g><path style="opacity:1" fill="#040404" d="M 388.5,138.5 C 400.277,137.784 404.443,143.117 401,154.5C 400.602,157.232 399.102,159.065 396.5,160C 385.735,160.558 381.235,155.392 383,144.5C 384.36,141.977 386.193,139.977 388.5,138.5 Z"/></g>
<g><path style="opacity:1" fill="#808080" d="M 445.5,137.5 C 449.212,145.042 448.212,145.375 442.5,138.5C 443.609,138.443 444.609,138.11 445.5,137.5 Z"/></g>
<g><path style="opacity:1" fill="#bfbfbf" d="M 438.5,140.5 C 439.5,140.833 440.167,141.5 440.5,142.5C 440.532,144.619 439.532,145.952 437.5,146.5C 436.167,145.833 435.167,144.833 434.5,143.5C 434.5,142.5 434.5,141.5 434.5,140.5C 435.833,140.5 437.167,140.5 438.5,140.5 Z"/></g>
<g><path style="opacity:1" fill="#1b1b1b" d="M 196.5,128.5 C 199.555,135.855 197.555,142.021 190.5,147C 183.338,149.611 176.838,148.444 171,143.5C 168.933,139.361 168.266,135.027 169,130.5C 170.492,142.833 177.326,147.666 189.5,145C 194.835,140.844 197.168,135.344 196.5,128.5 Z"/></g>
<g><path style="opacity:1" fill="#acadad" d="M 406.5,140.5 C 412.14,144.147 417.473,148.147 422.5,152.5C 422.44,153.043 422.107,153.376 421.5,153.5C 417.933,150.921 413.933,149.421 409.5,149C 407.094,145.682 405.594,146.182 405,150.5C 402.415,147.913 401.915,144.913 403.5,141.5C 404.086,141.709 404.586,142.043 405,142.5C 405.278,141.584 405.778,140.918 406.5,140.5 Z"/></g>
<g><path style="opacity:1" fill="#737373" d="M 440.5,142.5 C 441.283,144.076 442.45,145.409 444,146.5C 444.494,148.134 444.66,149.801 444.5,151.5C 443.448,151.649 442.448,151.483 441.5,151C 440.643,148.981 439.309,147.481 437.5,146.5C 439.532,145.952 440.532,144.619 440.5,142.5 Z"/></g>
<g><path style="opacity:1" fill="#aaaaaa" d="M 147.5,134.5 C 152.97,147.448 158.47,160.448 164,173.5C 164.49,174.793 164.657,176.127 164.5,177.5C 163.821,180.707 162.654,183.707 161,186.5C 159.961,185.756 159.461,184.756 159.5,183.5C 159.833,182.167 160.167,180.833 160.5,179.5C 160.5,179.167 160.5,178.833 160.5,178.5C 161.306,177.003 161.972,175.336 162.5,173.5C 155.701,161.243 150.034,148.576 145.5,135.5C 146.167,135.167 146.833,134.833 147.5,134.5 Z"/></g>
<g><path style="opacity:1" fill="#212121" d="M 397.5,133.5 C 398.289,133.783 398.956,134.283 399.5,135C 397.942,135.21 396.609,135.71 395.5,136.5C 383.199,136.312 378.365,142.312 381,154.5C 383.959,162.23 389.459,165.063 397.5,163C 400.496,160.537 403.162,157.703 405.5,154.5C 404.897,159.016 402.231,162.516 397.5,165C 387.543,167.044 381.043,163.211 378,153.5C 377.288,139.713 383.788,133.046 397.5,133.5 Z"/></g>
<g><path style="opacity:1" fill="#757475" d="M 145.5,135.5 C 150.034,148.576 155.701,161.243 162.5,173.5C 161.972,175.336 161.306,177.003 160.5,178.5C 155.066,164.962 149.066,151.629 142.5,138.5C 143.188,137.145 144.188,136.145 145.5,135.5 Z"/></g>
<g><path style="opacity:1" fill="#adadad" d="M 426.5,155.5 C 428.749,156.08 430.415,157.413 431.5,159.5C 428.058,161.241 425.225,163.908 423,167.5C 418.477,177.524 412.977,186.857 406.5,195.5C 406.443,194.391 406.11,193.391 405.5,192.5C 405.351,191.448 405.517,190.448 406,189.5C 414.147,178.857 420.98,167.524 426.5,155.5 Z"/></g>
<g><path style="opacity:1" fill="#4c4b4c" d="M 160.5,179.5 C 160.167,180.833 159.833,182.167 159.5,183.5C 152.199,169.726 145.532,155.559 139.5,141C 140.167,139 140.833,139 141.5,141C 146.672,154.511 153.006,167.344 160.5,179.5 Z"/></g>
<g><path style="opacity:1" fill="#b9b9b9" d="M 192.5,160.5 C 194.411,160.574 195.578,161.574 196,163.5C 202.461,179.05 208.628,194.716 214.5,210.5C 213.292,211.782 211.958,211.782 210.5,210.5C 203.209,194.791 196.209,178.958 189.5,163C 190.13,161.69 191.13,160.856 192.5,160.5 Z"/></g>
<g><path style="opacity:1" fill="#aeafb4" d="M 123.5,172.5 C 124.833,173.167 124.833,173.167 123.5,172.5 Z"/></g>
<g><path style="opacity:1" fill="#626162" d="M 184.5,164.5 C 185.75,164.577 186.583,165.244 187,166.5C 193.564,181.961 200.398,197.295 207.5,212.5C 207.167,212.833 206.833,213.167 206.5,213.5C 198.349,197.531 191.015,181.197 184.5,164.5 Z"/></g>
<g><path style="opacity:1" fill="#676c67" d="M 72.5,238.5 C 72.5,236.5 72.5,234.5 72.5,232.5C 71.5,232.5 70.5,232.5 69.5,232.5C 69.4914,230.692 69.9914,229.025 71,227.5C 81.6225,213.875 92.6225,200.542 104,187.5C 105.777,185.21 107.944,183.543 110.5,182.5C 110.34,184.199 110.506,185.866 111,187.5C 112.15,185.359 113.65,183.526 115.5,182C 115.361,180.699 114.695,179.866 113.5,179.5C 113.577,178.25 114.244,177.417 115.5,177C 117.81,176.503 120.143,176.337 122.5,176.5C 122.643,178.262 122.309,179.929 121.5,181.5C 103.181,199.125 86.8481,218.125 72.5,238.5 Z"/></g>
<g><path style="opacity:1" fill="#656363" d="M 202.5,155.5 C 203.496,155.414 204.329,155.748 205,156.5C 213.123,173.077 220.956,189.743 228.5,206.5C 227.675,207.386 226.675,207.719 225.5,207.5C 218.206,189.932 210.539,172.598 202.5,155.5 Z"/></g>
<g><path style="opacity:1" fill="#7d7d7d" d="M 431.5,159.5 C 434.569,160.804 435.569,162.804 434.5,165.5C 433.833,165.5 433.167,165.5 432.5,165.5C 432.344,161.865 431.178,161.532 429,164.5C 423.17,175.497 416.837,186.164 410,196.5C 409.51,197.793 409.343,199.127 409.5,200.5C 409.833,201.167 410.167,201.833 410.5,202.5C 409.992,204.233 409.159,204.566 408,203.5C 407.728,200.746 407.228,198.079 406.5,195.5C 412.977,186.857 418.477,177.524 423,167.5C 425.225,163.908 428.058,161.241 431.5,159.5 Z"/></g>
<g><path style="opacity:1" fill="#101010" d="M 432.5,165.5 C 424.585,176.996 416.918,188.662 409.5,200.5C 409.343,199.127 409.51,197.793 410,196.5C 416.837,186.164 423.17,175.497 429,164.5C 431.178,161.532 432.344,161.865 432.5,165.5 Z"/></g>
<g><path style="opacity:1" fill="#b0b0b1" d="M 113.5,179.5 C 114.695,179.866 115.361,180.699 115.5,182C 113.65,183.526 112.15,185.359 111,187.5C 110.506,185.866 110.34,184.199 110.5,182.5C 111.167,181.167 112.167,180.167 113.5,179.5 Z"/></g>
<g><path style="opacity:1" fill="#c1c1c1" d="M 374.5,173.5 C 365.189,186.77 356.356,200.436 348,214.5C 342.587,221.067 337.421,227.733 332.5,234.5C 331.89,233.609 331.557,232.609 331.5,231.5C 331.5,230.5 331.5,229.5 331.5,228.5C 344.238,210.034 356.738,191.368 369,172.5C 371.235,171.02 373.068,171.353 374.5,173.5 Z"/></g>
<g><path style="opacity:1" fill="#484948" d="M 122.5,190.5 C 122.443,189.391 122.11,188.391 121.5,187.5C 122.812,185.521 124.479,183.855 126.5,182.5C 127.646,183.145 128.646,183.978 129.5,185C 127.004,186.666 124.671,188.5 122.5,190.5 Z"/></g>
<g><path style="opacity:1" fill="#403f3f" d="M 245.5,183.5 C 245.611,184.117 245.944,184.617 246.5,185C 239.966,186.006 233.466,187.172 227,188.5C 226.098,188.257 225.265,187.923 224.5,187.5C 231.196,185.214 238.196,183.881 245.5,183.5 Z"/></g>
<g><path style="opacity:1" fill="#454545" d="M 128.5,197.5 C 127.365,195.787 125.698,195.12 123.5,195.5C 125.978,193.197 128.645,191.031 131.5,189C 132.833,188.333 134.167,188.333 135.5,189C 136.451,189.718 136.617,190.551 136,191.5C 133.337,193.334 130.837,195.334 128.5,197.5 Z"/></g>
<g><path style="opacity:1" fill="#898989" d="M 192.5,160.5 C 193.708,159.218 195.042,159.218 196.5,160.5C 204.311,176.621 211.978,192.788 219.5,209C 217.975,210.009 216.308,210.509 214.5,210.5C 208.628,194.716 202.461,179.05 196,163.5C 195.578,161.574 194.411,160.574 192.5,160.5 Z"/></g>
<g><path style="opacity:1" fill="#555556" d="M 432.5,165.5 C 433.167,165.5 433.833,165.5 434.5,165.5C 426.736,178.04 418.736,190.374 410.5,202.5C 410.167,201.833 409.833,201.167 409.5,200.5C 416.918,188.662 424.585,176.996 432.5,165.5 Z"/></g>
<g><path style="opacity:1" fill="#6d716c" d="M 314.5,190.5 C 317.075,193.319 319.408,196.319 321.5,199.5C 323.126,204.42 324.459,209.42 325.5,214.5C 326.5,214.5 327.5,214.5 328.5,214.5C 328.605,210.681 329.438,207.014 331,203.5C 333.044,202.228 334.878,202.561 336.5,204.5C 334.333,208.167 332.167,211.833 330,215.5C 329.333,216.833 328.667,216.833 328,215.5C 328.328,220.482 328.995,225.482 330,230.5C 330.278,229.584 330.778,228.918 331.5,228.5C 331.5,229.5 331.5,230.5 331.5,231.5C 330.671,239.657 330.171,247.99 330,256.5C 330.547,261.768 328.38,265.102 323.5,266.5C 321.617,266.124 320.117,265.124 319,263.5C 316.276,257.995 313.943,252.328 312,246.5C 308.729,247.13 305.562,248.13 302.5,249.5C 303.897,253.294 305.564,256.961 307.5,260.5C 310.503,261.085 313.503,261.752 316.5,262.5C 317.167,263.5 317.833,264.5 318.5,265.5C 309.041,268.52 303.207,265.187 301,255.5C 297.229,243.752 294.729,231.752 293.5,219.5C 293.5,214.833 293.5,210.167 293.5,205.5C 293.833,205.5 294.167,205.5 294.5,205.5C 294.334,210.179 294.501,214.845 295,219.5C 297.039,217.126 299.372,215.126 302,213.5C 302.037,211.026 302.87,209.026 304.5,207.5C 304.183,210.572 304.516,213.572 305.5,216.5C 306.167,213.023 306.834,209.689 307.5,206.5C 307.369,207.239 307.536,207.906 308,208.5C 310.907,206.192 311.241,203.525 309,200.5C 308.722,201.416 308.222,202.082 307.5,202.5C 307.412,198.694 308.079,195.028 309.5,191.5C 311.045,190.548 312.712,190.215 314.5,190.5 Z"/></g>
<g><path style="opacity:1" fill="#6d736d" d="M 117.5,190.5 C 117.285,192.179 117.952,193.179 119.5,193.5C 104.734,208.445 91.5671,224.778 80,242.5C 78.7269,245.608 77.2269,248.608 75.5,251.5C 72.867,252.998 71.5336,252.165 71.5,249C 72.4764,246.882 73.3097,244.715 74,242.5C 86.4825,223.514 100.982,206.181 117.5,190.5 Z"/></g>
<g><path style="opacity:1" fill="#acadad" d="M 121.5,187.5 C 122.11,188.391 122.443,189.391 122.5,190.5C 121.833,191.833 120.833,192.833 119.5,193.5C 117.952,193.179 117.285,192.179 117.5,190.5C 118.262,188.738 119.596,187.738 121.5,187.5 Z"/></g>
<g><path style="opacity:1" fill="#423e3e" d="M 314.5,190.5 C 312.712,190.215 311.045,190.548 309.5,191.5C 308.079,195.028 307.412,198.694 307.5,202.5C 307.5,203.833 307.5,205.167 307.5,206.5C 306.834,209.689 306.167,213.023 305.5,216.5C 304.516,213.572 304.183,210.572 304.5,207.5C 304.665,204.15 304.498,200.817 304,197.5C 301.808,198.399 299.642,199.399 297.5,200.5C 295.679,201.728 294.679,203.394 294.5,205.5C 294.167,205.5 293.833,205.5 293.5,205.5C 293.448,203.097 293.781,200.764 294.5,198.5C 295.09,197.234 295.59,195.901 296,194.5C 301.965,191.21 308.131,189.877 314.5,190.5 Z"/></g>
<g><path style="opacity:1" fill="#030303" d="M 139.5,197.5 C 149.759,205.586 159.592,214.253 169,223.5C 169.91,225.945 169.076,227.278 166.5,227.5C 165.448,227.649 164.448,227.483 163.5,227C 154.363,218.864 145.53,210.364 137,201.5C 136.09,199.055 136.924,197.722 139.5,197.5 Z"/></g>
<g><path style="opacity:1" fill="#4c4c4c" d="M 141.5,195.5 C 139.007,195.131 138.34,195.797 139.5,197.5C 136.924,197.722 136.09,199.055 137,201.5C 145.53,210.364 154.363,218.864 163.5,227C 164.448,227.483 165.448,227.649 166.5,227.5C 165.081,228.451 163.415,228.784 161.5,228.5C 153.095,222.265 145.428,215.099 138.5,207C 136.092,205.885 134.092,204.218 132.5,202C 131.552,201.517 130.552,201.351 129.5,201.5C 132.28,199.592 134.947,197.425 137.5,195C 139.066,194.235 140.399,194.402 141.5,195.5 Z"/></g>
<g><path style="opacity:1" fill="#0b0a0a" d="M 294.5,198.5 C 293.781,200.764 293.448,203.097 293.5,205.5C 293.5,210.167 293.5,214.833 293.5,219.5C 292.833,220.5 292.167,221.5 291.5,222.5C 291.5,216.167 291.5,209.833 291.5,203.5C 290.5,203.5 289.5,203.5 288.5,203.5C 290.475,201.863 292.475,200.196 294.5,198.5 Z"/></g>
<g><path style="opacity:1" fill="#0b0b0b" d="M 312.5,200.5 C 314.144,200.286 315.644,200.62 317,201.5C 324.622,217.619 327.622,234.619 326,252.5C 325.338,256.754 323.505,257.42 320.5,254.5C 314.139,241.508 311.139,227.674 311.5,213C 311.565,208.784 311.898,204.617 312.5,200.5 Z"/></g>
<g><path style="opacity:1" fill="#cdcecd" d="M 416.5,201.5 C 417.833,202.167 417.833,202.167 416.5,201.5 Z"/></g>
<g><path style="opacity:1" fill="#6f746f" d="M 288.5,203.5 C 289.5,203.5 290.5,203.5 291.5,203.5C 291.5,209.833 291.5,216.167 291.5,222.5C 292.111,230.887 293.111,239.22 294.5,247.5C 285.998,250.313 277.332,251.313 268.5,250.5C 266.08,240.981 264.413,231.314 263.5,221.5C 262.338,226.467 262.171,231.467 263,236.5C 264.277,241.493 265.444,246.493 266.5,251.5C 256.677,253.956 246.677,255.956 236.5,257.5C 247.5,258.416 258.5,258.583 269.5,258C 271.192,259.401 271.859,261.234 271.5,263.5C 260.258,262.847 249.425,264.513 239,268.5C 210.163,256.543 186.163,262.876 167,287.5C 157.822,302.34 154.989,318.34 158.5,335.5C 160.107,340.485 161.607,345.485 163,350.5C 166.995,356.979 171.495,362.979 176.5,368.5C 205.18,387.518 232.013,385.185 257,361.5C 260.007,357.545 262.84,353.379 265.5,349C 269.897,335.857 271.397,322.357 270,308.5C 269.178,306.212 268.511,303.878 268,301.5C 264.828,293.656 260.995,286.156 256.5,279C 256.752,276.191 258.085,274.191 260.5,273C 276.664,271.073 287.33,277.74 292.5,293C 304.647,333.099 294.647,366.432 262.5,393C 239.058,410.152 213.391,414.152 185.5,405C 149.616,387.026 131.616,357.693 131.5,317C 133.301,301.388 137.801,286.554 145,272.5C 161.62,248.082 184.453,232.415 213.5,225.5C 226.228,222.422 238.895,219.756 251.5,217.5C 256.12,217.26 260.453,216.26 264.5,214.5C 273.306,212.428 281.306,208.761 288.5,203.5 Z"/></g>
<g><path style="opacity:1" fill="#aaacac" d="M 123.5,195.5 C 125.698,195.12 127.365,195.787 128.5,197.5C 126.105,200.861 123.105,203.528 119.5,205.5C 117.61,205.297 116.11,205.963 115,207.5C 114.536,206.906 114.369,206.239 114.5,205.5C 117.529,202.141 120.529,198.808 123.5,195.5 Z"/></g>
<g><path style="opacity:1" fill="#b8b8b8" d="M 304.5,207.5 C 302.87,209.026 302.037,211.026 302,213.5C 299.372,215.126 297.039,217.126 295,219.5C 294.501,214.845 294.334,210.179 294.5,205.5C 294.679,203.394 295.679,201.728 297.5,200.5C 299.642,199.399 301.808,198.399 304,197.5C 304.498,200.817 304.665,204.15 304.5,207.5 Z"/></g>
<g><path style="opacity:1" fill="#b1b2b2" d="M 307.5,206.5 C 307.5,205.167 307.5,203.833 307.5,202.5C 308.222,202.082 308.722,201.416 309,200.5C 311.241,203.525 310.907,206.192 308,208.5C 307.536,207.906 307.369,207.239 307.5,206.5 Z"/></g>
<g><path style="opacity:1" fill="#6c726c" d="M 114.5,205.5 C 114.369,206.239 114.536,206.906 115,207.5C 116.11,205.963 117.61,205.297 119.5,205.5C 105.879,220.738 93.7125,237.071 83,254.5C 82.5172,255.448 82.3505,256.448 82.5,257.5C 79.7395,258.085 78.0728,257.085 77.5,254.5C 80.3048,249.722 82.9715,244.889 85.5,240C 92.1543,230.502 99.1543,221.336 106.5,212.5C 108.974,209.807 111.641,207.474 114.5,205.5 Z"/></g>
<g><path style="opacity:1" fill="#6f746f" d="M 126.5,205.5 C 126.281,206.675 126.614,207.675 127.5,208.5C 137.814,214.304 146.814,221.804 154.5,231C 155.901,231.41 157.234,231.91 158.5,232.5C 146.713,239.276 136.713,248.276 128.5,259.5C 126.511,262.966 125.011,266.632 124,270.5C 123.208,278.838 122.375,287.172 121.5,295.5C 120.893,295.376 120.56,295.043 120.5,294.5C 121.477,291.713 121.81,288.713 121.5,285.5C 121.846,282.398 121.179,279.565 119.5,277C 114.565,274.394 109.898,271.394 105.5,268C 100.143,262.677 94.4762,257.843 88.5,253.5C 97.2928,238.535 107.459,224.535 119,211.5C 121.106,208.882 123.606,206.882 126.5,205.5 Z"/></g>
<g><path style="opacity:1" fill="#454544" d="M 241.5,209.5 C 240.399,208.402 239.066,208.235 237.5,209C 236.244,209.417 235.577,210.25 235.5,211.5C 234.596,210.791 234.263,209.791 234.5,208.5C 231.519,208.456 231.186,208.123 233.5,207.5C 236.449,206.698 239.449,206.364 242.5,206.5C 242.737,207.791 242.404,208.791 241.5,209.5 Z"/></g>
<g><path style="opacity:1" fill="#747474" d="M 141.5,195.5 C 153.305,206.468 165.305,217.301 177.5,228C 172.412,228.427 167.412,229.26 162.5,230.5C 162.167,229.833 161.833,229.167 161.5,228.5C 163.415,228.784 165.081,228.451 166.5,227.5C 169.076,227.278 169.91,225.945 169,223.5C 159.592,214.253 149.759,205.586 139.5,197.5C 138.34,195.797 139.007,195.131 141.5,195.5 Z"/></g>
<g><path style="opacity:1" fill="#656465" d="M 364.5,168.5 C 365.376,168.369 366.043,168.702 366.5,169.5C 355.162,187.511 343.329,205.178 331,222.5C 331.032,220.402 331.699,218.402 333,216.5C 344.256,200.985 354.756,184.985 364.5,168.5 Z"/></g>
<g><path style="opacity:1" fill="#686868" d="M 382.5,178.5 C 383.497,178.47 384.164,178.97 384.5,180C 372.043,199.74 360.21,219.906 349,240.5C 347.797,251.809 346.63,263.143 345.5,274.5C 344.325,274.719 343.325,274.386 342.5,273.5C 345.456,265.191 346.123,256.691 344.5,248C 347.019,239.457 350.519,231.29 355,223.5C 364.68,208.806 373.846,193.806 382.5,178.5 Z"/></g>
<g><path style="opacity:1" fill="#6c716c" d="M 436.5,205.5 C 440.524,206.159 443.857,208.159 446.5,211.5C 455.827,224.403 465.16,237.403 474.5,250.5C 480.06,258.423 484.894,266.756 489,275.5C 489.56,280.275 487.56,282.275 483,281.5C 471.358,255.183 455.525,231.85 435.5,211.5C 434.23,209.243 434.564,207.243 436.5,205.5 Z"/></g>
<g><path style="opacity:1" fill="#2c2b2b" d="M 288.5,203.5 C 281.306,208.761 273.306,212.428 264.5,214.5C 264.5,214.167 264.5,213.833 264.5,213.5C 272.511,210.16 280.511,206.827 288.5,203.5 Z"/></g>
<g><path style="opacity:1" fill="#494a49" d="M 214.5,221.5 C 214.5,219.167 214.5,216.833 214.5,214.5C 219.551,211.812 224.884,210.812 230.5,211.5C 232.415,213.071 233.415,215.071 233.5,217.5C 226.996,218.043 220.663,219.376 214.5,221.5 Z"/></g>
<g><path style="opacity:1" fill="#7b7b7b" d="M 374.5,173.5 C 375.497,173.47 376.164,173.97 376.5,175C 362.631,196.569 348.631,218.069 334.5,239.5C 332.783,238.332 332.116,236.665 332.5,234.5C 337.421,227.733 342.587,221.067 348,214.5C 356.356,200.436 365.189,186.77 374.5,173.5 Z"/></g>
<g><path style="opacity:1" fill="#b8b9b9" d="M 129.5,201.5 C 130.552,201.351 131.552,201.517 132.5,202C 134.092,204.218 136.092,205.885 138.5,207C 145.428,215.099 153.095,222.265 161.5,228.5C 161.833,229.167 162.167,229.833 162.5,230.5C 161.329,231.345 159.995,232.011 158.5,232.5C 157.234,231.91 155.901,231.41 154.5,231C 146.814,221.804 137.814,214.304 127.5,208.5C 126.614,207.675 126.281,206.675 126.5,205.5C 127.5,204.167 128.5,202.833 129.5,201.5 Z"/></g>
<g><path style="opacity:1" fill="#b5b5b4" d="M 285.5,210.5 C 287.068,215.449 287.401,220.283 286.5,225C 280.219,226.427 274.052,228.26 268,230.5C 266.941,230.37 266.108,229.87 265.5,229C 269.044,227.747 269.377,225.913 266.5,223.5C 267.034,221.386 268.034,219.552 269.5,218C 274.178,215.774 279.011,213.941 284,212.5C 285.03,212.164 285.53,211.497 285.5,210.5 Z"/></g>
<g><path style="opacity:1" fill="#535451" d="M 434.5,216.5 C 433.5,216.5 432.5,216.5 431.5,216.5C 425.887,213.911 426.221,212.578 432.5,212.5C 432.527,214.199 433.194,215.533 434.5,216.5 Z"/></g>
<g><path style="opacity:1" fill="#502a23" d="M 264.5,213.5 C 264.5,213.833 264.5,214.167 264.5,214.5C 260.453,216.26 256.12,217.26 251.5,217.5C 251.167,216.833 250.833,216.167 250.5,215.5C 252.451,215.773 253.951,215.107 255,213.5C 255.333,214.167 255.667,214.833 256,215.5C 258.687,214.287 261.52,213.62 264.5,213.5 Z"/></g>
<g><path style="opacity:1" fill="#b3b5b5" d="M 214.5,214.5 C 214.5,216.833 214.5,219.167 214.5,221.5C 212.883,222.038 211.216,222.371 209.5,222.5C 208.342,217.891 210.009,215.224 214.5,214.5 Z"/></g>
<g><path style="opacity:1" fill="#b1b1b0" d="M 431.5,216.5 C 432.5,216.5 433.5,216.5 434.5,216.5C 436.833,216.833 438.167,218.167 438.5,220.5C 437.983,222.274 437.65,223.941 437.5,225.5C 434.682,223.021 432.682,220.021 431.5,216.5 Z"/></g>
<g><path style="opacity:1" fill="#6d6d6c" d="M 428.5,221.5 C 427.5,221.5 426.5,221.5 425.5,221.5C 425.5,222.5 425.5,223.5 425.5,224.5C 423.401,222.413 421.735,220.08 420.5,217.5C 423.852,217.53 426.518,218.863 428.5,221.5 Z"/></g>
<g><path style="opacity:1" fill="#6b706b" d="M 438.5,220.5 C 440.024,221.174 441.358,222.174 442.5,223.5C 454.029,238.459 464.696,254.125 474.5,270.5C 476.711,274.932 478.378,279.599 479.5,284.5C 479.141,287.282 477.808,287.948 475.5,286.5C 465.083,264.645 452.417,244.312 437.5,225.5C 437.65,223.941 437.983,222.274 438.5,220.5 Z"/></g>
<g><path style="opacity:1" fill="#333333" d="M 268.5,250.5 C 267.833,250.833 267.167,251.167 266.5,251.5C 265.444,246.493 264.277,241.493 263,236.5C 262.171,231.467 262.338,226.467 263.5,221.5C 264.413,231.314 266.08,240.981 268.5,250.5 Z"/></g>
<g><path style="opacity:1" fill="#767778" d="M 380.5,221.5 C 386.588,222.01 386.922,223.677 381.5,226.5C 378.721,224.79 378.388,223.123 380.5,221.5 Z"/></g>
<g><path style="opacity:1" fill="#020202" d="M 116.5,224.5 C 126.755,224.257 131.255,229.257 130,239.5C 128.328,245.507 124.495,247.673 118.5,246C 111.93,242.345 109.763,236.845 112,229.5C 113.366,227.638 114.866,225.972 116.5,224.5 Z"/></g>
<g><path style="opacity:1" fill="#202020" d="M 116.5,221.5 C 124.737,219.787 130.737,222.62 134.5,230C 136.356,235.646 135.523,240.813 132,245.5C 133.276,240.99 133.609,236.323 133,231.5C 129.345,224.262 123.512,221.762 115.5,224C 113.376,225.122 111.543,226.622 110,228.5C 109.333,227.833 109.333,227.167 110,226.5C 111.965,224.45 114.132,222.783 116.5,221.5 Z"/></g>
<g><path style="opacity:1" fill="#7a7a7b" d="M 196.5,223.5 C 196.842,224.338 197.508,224.672 198.5,224.5C 196.775,225.905 194.775,226.405 192.5,226C 193.984,225.338 195.317,224.504 196.5,223.5 Z"/></g>
<g><path style="opacity:1" fill="#6d726d" d="M 365.5,218.5 C 368.389,218.999 369.056,220.499 367.5,223C 370.521,224.539 371.854,227.039 371.5,230.5C 372.822,230.33 373.989,230.663 375,231.5C 377.544,228.92 380.044,228.92 382.5,231.5C 384.716,233.781 385.549,236.448 385,239.5C 381.758,242.205 378.258,244.539 374.5,246.5C 370.422,243.377 366.255,240.377 362,237.5C 359.14,230.328 360.307,223.995 365.5,218.5 Z"/></g>
<g><path style="opacity:1" fill="#878587" d="M 372.5,223.5 C 375.297,223.967 376.631,225.633 376.5,228.5C 373.09,228.616 371.756,226.95 372.5,223.5 Z"/></g>
<g><path style="opacity:1" fill="#c0c1c0" d="M 428.5,221.5 C 430.5,222.833 432.167,224.5 433.5,226.5C 433.992,230.29 433.159,230.956 431,228.5C 430.617,229.056 430.117,229.389 429.5,229.5C 427.937,228.055 426.604,226.389 425.5,224.5C 425.5,223.5 425.5,222.5 425.5,221.5C 426.5,221.5 427.5,221.5 428.5,221.5 Z"/></g>
<g><path style="opacity:1" fill="#6f746f" d="M 433.5,226.5 C 434.376,226.369 435.043,226.702 435.5,227.5C 444.737,241.923 454.237,256.257 464,270.5C 468.074,277.56 470.574,284.894 471.5,292.5C 470.264,293.246 468.93,293.579 467.5,293.5C 465.272,284.996 461.772,276.996 457,269.5C 451.333,260.5 445.667,251.5 440,242.5C 436.263,238.273 432.763,233.94 429.5,229.5C 430.117,229.389 430.617,229.056 431,228.5C 433.159,230.956 433.992,230.29 433.5,226.5 Z"/></g>
<g><path style="opacity:1" fill="#b7b6b6" d="M 252.5,221.5 C 260.672,219.505 263.506,222.505 261,230.5C 260.626,231.416 260.126,232.25 259.5,233C 254.543,234.489 249.543,235.822 244.5,237C 230.134,239.192 215.8,241.359 201.5,243.5C 201.281,242.325 201.614,241.325 202.5,240.5C 218.476,231.825 235.143,225.491 252.5,221.5 Z"/></g>
<g><path style="opacity:1" fill="#909090" d="M 386.5,225.5 C 390.107,227.874 391.44,231.041 390.5,235C 389.5,235.667 388.5,235.667 387.5,235C 385.968,232.966 384.635,230.799 383.5,228.5C 384.77,227.712 385.77,226.712 386.5,225.5 Z"/></g>
<g><path style="opacity:1" fill="#707570" d="M 427.5,235.5 C 434.804,244.73 442.137,254.064 449.5,263.5C 453.948,270.063 457.615,277.063 460.5,284.5C 449.489,293.502 438.155,302.168 426.5,310.5C 425.548,312.045 425.215,313.712 425.5,315.5C 425.672,316.492 425.338,317.158 424.5,317.5C 425.933,298.374 419.6,282.374 405.5,269.5C 400.588,265.671 395.588,262.005 390.5,258.5C 392.199,258.66 393.866,258.494 395.5,258C 402.32,252.424 409.32,247.091 416.5,242C 420.322,239.913 423.989,237.747 427.5,235.5 Z"/></g>
<g><path style="opacity:1" fill="#b5b6b7" d="M 69.5,232.5 C 70.5,232.5 71.5,232.5 72.5,232.5C 72.5,234.5 72.5,236.5 72.5,238.5C 72.0679,239.71 71.4013,240.71 70.5,241.5C 69.1667,240.167 67.8333,238.833 66.5,237.5C 66.7497,235.326 67.7497,233.659 69.5,232.5 Z"/></g>
<g><path style="opacity:1" fill="#6d6d6c" d="M 422.5,228.5 C 413.019,235.08 403.685,241.913 394.5,249C 392.805,251.874 390.805,254.541 388.5,257C 389.056,257.383 389.389,257.883 389.5,258.5C 384.311,257.289 379.311,255.622 374.5,253.5C 386.658,242.401 399.658,232.235 413.5,223C 414.833,222.333 416.167,222.333 417.5,223C 419.424,224.75 421.091,226.583 422.5,228.5 Z"/></g>
<g><path style="opacity:1" fill="#050505" d="M 414.5,224.5 C 417.91,226.222 418.243,228.389 415.5,231C 405.928,237.236 396.928,244.236 388.5,252C 386.045,253.631 383.545,253.797 381,252.5C 380.837,250.613 381.671,249.113 383.5,248C 394.018,240.303 404.351,232.47 414.5,224.5 Z"/></g>
<g><path style="opacity:1" fill="#787878" d="M 356.5,231.5 C 357.481,233.396 358.481,235.396 359.5,237.5C 356.896,240.567 357.562,241.567 361.5,240.5C 365.146,242.817 368.48,245.484 371.5,248.5C 371.023,249.478 370.357,250.311 369.5,251C 364.113,247.135 358.113,243.968 351.5,241.5C 353.193,238.114 354.86,234.78 356.5,231.5 Z"/></g>
<g><path style="opacity:1" fill="#4b4b4b" d="M 66.5,237.5 C 67.8333,238.833 69.1667,240.167 70.5,241.5C 68.5229,249.372 66.1896,249.372 63.5,241.5C 63.7538,239.583 64.7538,238.249 66.5,237.5 Z"/></g>
<g><path style="opacity:1" fill="#6c726c" d="M 374.5,272.5 C 373.167,272.5 371.833,272.5 370.5,272.5C 370.5,274.167 370.5,275.833 370.5,277.5C 364.491,277.666 358.491,277.499 352.5,277C 350.671,276.727 349.171,275.893 348,274.5C 347.775,268.551 348.608,262.718 350.5,257C 349.596,252.889 349.263,248.722 349.5,244.5C 364.126,248.131 372.46,257.464 374.5,272.5 Z"/></g>
<g><path style="opacity:1" fill="#afafaf" d="M 422.5,228.5 C 424.547,230.55 426.214,232.883 427.5,235.5C 423.989,237.747 420.322,239.913 416.5,242C 409.32,247.091 402.32,252.424 395.5,258C 393.866,258.494 392.199,258.66 390.5,258.5C 390.167,258.5 389.833,258.5 389.5,258.5C 389.389,257.883 389.056,257.383 388.5,257C 390.805,254.541 392.805,251.874 394.5,249C 403.685,241.913 413.019,235.08 422.5,228.5 Z"/></g>
<g><path style="opacity:1" fill="#b8b9b7" d="M 339.5,271.5 C 338.833,268.5 338.167,265.5 337.5,262.5C 336.818,258.802 335.318,255.469 333,252.5C 332.333,250.167 332.333,247.833 333,245.5C 334.049,244.483 335.216,244.316 336.5,245C 338.068,247.304 339.235,249.804 340,252.5C 340.82,259.014 340.653,265.347 339.5,271.5 Z"/></g>
<g><path style="opacity:1" fill="#040404" d="M 424.5,254.5 C 435.989,253.155 440.823,258.155 439,269.5C 437.43,275.377 433.597,277.544 427.5,276C 420.584,273.058 418.084,267.891 420,260.5C 421.332,258.34 422.832,256.34 424.5,254.5 Z"/></g>
<g><path style="opacity:1" fill="#777676" d="M 273.5,257.5 C 282.173,257.334 290.84,257.5 299.5,258C 300.337,259.011 300.67,260.178 300.5,261.5C 291.958,261.21 283.458,261.543 275,262.5C 272.389,261.5 271.889,259.833 273.5,257.5 Z"/></g>
<g><path style="opacity:1" fill="#101010" d="M 109.5,277.5 C 112.167,280.5 114.833,283.5 117.5,286.5C 117.103,287.525 116.437,287.692 115.5,287C 105.806,278.967 96.4727,270.634 87.5,262C 87.8499,260.743 88.5165,260.409 89.5,261C 96.0441,266.755 102.711,272.255 109.5,277.5 Z"/></g>
<g><path style="opacity:1" fill="#b8b8b8" d="M 191.5,241.5 C 193.379,241.393 193.712,241.893 192.5,243C 184.695,246.067 177.695,250.401 171.5,256C 166,262.833 160.5,269.667 155,276.5C 146.149,290.9 141.483,306.566 141,323.5C 137.229,297.859 144.729,276.026 163.5,258C 172.807,252.19 182.141,246.69 191.5,241.5 Z"/></g>
<g><path style="opacity:1" fill="#69696a" d="M 87.5,255.5 C 95.1667,262.167 102.833,268.833 110.5,275.5C 109.662,275.842 109.328,276.508 109.5,277.5C 102.711,272.255 96.0441,266.755 89.5,261C 88.5165,260.409 87.8499,260.743 87.5,262C 96.4727,270.634 105.806,278.967 115.5,287C 116.437,287.692 117.103,287.525 117.5,286.5C 118.478,286.811 119.145,287.478 119.5,288.5C 119.062,289.506 118.396,289.506 117.5,288.5C 116.702,288.957 116.369,289.624 116.5,290.5C 105.791,281.056 94.9579,271.723 84,262.5C 84.4409,259.868 85.6075,257.534 87.5,255.5 Z"/></g>
<g><path style="opacity:1" fill="#c52016" d="M 283.5,264.5 C 289.509,264.334 295.509,264.501 301.5,265C 303.329,265.273 304.829,266.107 306,267.5C 305.062,274.423 303.562,281.257 301.5,288C 298.653,288.944 296.153,288.444 294,286.5C 290.988,279.22 287.154,272.553 282.5,266.5C 282.863,265.817 283.196,265.15 283.5,264.5 Z"/></g>
<g><path style="opacity:1" fill="#808080" d="M 373.5,260.5 C 376.297,262.795 378.964,265.295 381.5,268C 376.556,268.23 373.889,265.73 373.5,260.5 Z"/></g>
<g><path style="opacity:1" fill="#6c726c" d="M 328.5,266.5 C 329.625,272.252 327.458,276.586 322,279.5C 319.23,280.348 316.397,280.681 313.5,280.5C 313.211,276.894 313.544,273.394 314.5,270C 318.167,269.667 321.833,269.333 325.5,269C 326.942,268.623 327.942,267.79 328.5,266.5 Z"/></g>
<g><path style="opacity:1" fill="#232423" d="M 426.5,250.5 C 434.268,249.614 439.934,252.614 443.5,259.5C 443.333,259.833 443.167,260.167 443,260.5C 438.07,252.607 431.237,250.44 422.5,254C 416.947,258.618 415.114,264.451 417,271.5C 419.624,276.563 423.791,279.23 429.5,279.5C 433.639,279.174 437.306,278.007 440.5,276C 432.489,283.482 424.655,283.315 417,275.5C 411.646,263.71 414.812,255.377 426.5,250.5 Z"/></g>
<g><path style="opacity:1" fill="#939392" d="M 384.5,266.5 C 387.665,264.909 389.998,265.909 391.5,269.5C 390.277,270.614 388.944,270.781 387.5,270C 386.364,268.855 385.364,267.688 384.5,266.5 Z"/></g>
<g><path style="opacity:1" fill="#737373" d="M 332.5,258.5 C 335.407,263.174 335.907,268.174 334,273.5C 330.792,277.563 330.126,277.23 332,272.5C 332.499,267.845 332.666,263.179 332.5,258.5 Z"/></g>
<g><path style="opacity:1" fill="#545457" d="M 337.5,262.5 C 338.167,265.5 338.833,268.5 339.5,271.5C 339.5,272.5 339.5,273.5 339.5,274.5C 338.448,274.649 337.448,274.483 336.5,274C 337.46,270.27 337.793,266.437 337.5,262.5 Z"/></g>
<g><path style="opacity:1" fill="#c8c8c8" d="M 213.5,268.5 C 213.815,271.211 213.148,273.544 211.5,275.5C 187.108,278.557 172.775,292.224 168.5,316.5C 166.833,316.5 165.167,316.5 163.5,316.5C 163.5,314.833 163.5,313.167 163.5,311.5C 169.71,284.954 186.376,270.621 213.5,268.5 Z"/></g>
<g><path style="opacity:1" fill="#070707" d="M 211.5,275.5 C 232.84,275.649 247.674,285.649 256,305.5C 258.532,311.592 259.699,317.925 259.5,324.5C 257.538,333.719 254.538,342.719 250.5,351.5C 244.242,357.633 237.242,362.8 229.5,367C 221.656,369.158 213.656,369.991 205.5,369.5C 179.587,361.347 167.253,343.68 168.5,316.5C 172.775,292.224 187.108,278.557 211.5,275.5 Z"/></g>
<g><path style="opacity:1" fill="#949294" d="M 378.5,272.5 C 386.539,272.152 387.205,273.819 380.5,277.5C 379.05,276.15 378.383,274.484 378.5,272.5 Z"/></g>
<g><path style="opacity:1" fill="#6c726c" d="M 341.5,377.5 C 333.452,365.304 328.452,351.971 326.5,337.5C 326.664,334.813 326.497,332.146 326,329.5C 324.908,327.883 323.408,326.883 321.5,326.5C 321.5,326.167 321.5,325.833 321.5,325.5C 322.496,325.414 323.329,325.748 324,326.5C 324.174,321.649 324.674,316.982 325.5,312.5C 325.338,314.527 325.505,316.527 326,318.5C 327.271,306.75 330.104,295.417 334.5,284.5C 340.061,276.05 346.561,275.384 354,282.5C 364.784,303.252 368.117,325.252 364,348.5C 363.586,358.408 360.586,367.408 355,375.5C 350.728,379.213 346.228,379.879 341.5,377.5 Z"/></g>
<g><path style="opacity:1" fill="#bdbdbd" d="M 88.5,253.5 C 94.4762,257.843 100.143,262.677 105.5,268C 109.898,271.394 114.565,274.394 119.5,277C 121.179,279.565 121.846,282.398 121.5,285.5C 117.905,282.245 114.238,278.912 110.5,275.5C 102.833,268.833 95.1667,262.167 87.5,255.5C 87.3284,254.508 87.6618,253.842 88.5,253.5 Z"/></g>
<g><path style="opacity:1" fill="#b4b3b4" d="M 374.5,272.5 C 375.357,274.403 376.023,276.403 376.5,278.5C 376.132,280.175 375.132,281.175 373.5,281.5C 373.167,281.5 372.833,281.5 372.5,281.5C 372.267,279.938 371.6,278.605 370.5,277.5C 370.5,275.833 370.5,274.167 370.5,272.5C 371.833,272.5 373.167,272.5 374.5,272.5 Z"/></g>
<g><path style="opacity:1" fill="#888889" d="M 372.5,281.5 C 372.833,281.5 373.167,281.5 373.5,281.5C 371.159,283.829 368.492,285.829 365.5,287.5C 364.526,285.257 364.192,282.924 364.5,280.5C 367.206,280.575 369.873,280.908 372.5,281.5 Z"/></g>
<g><path style="opacity:1" fill="#595a5b" d="M 393.5,271.5 C 394.756,271.461 395.756,271.961 396.5,273C 385.42,280.624 374.253,288.124 363,295.5C 362.837,293.613 363.671,292.113 365.5,291C 375.289,285.027 384.622,278.527 393.5,271.5 Z"/></g>
<g><path style="opacity:1" fill="#999899" d="M 110.5,275.5 C 114.238,278.912 117.905,282.245 121.5,285.5C 121.81,288.713 121.477,291.713 120.5,294.5C 118.833,293.5 117.5,292.167 116.5,290.5C 116.369,289.624 116.702,288.957 117.5,288.5C 118.396,289.506 119.062,289.506 119.5,288.5C 119.145,287.478 118.478,286.811 117.5,286.5C 114.833,283.5 112.167,280.5 109.5,277.5C 109.328,276.508 109.662,275.842 110.5,275.5 Z"/></g>
<g><path style="opacity:1" fill="#4a4a49" d="M 205.5,312.5 C 200.511,304.528 195.511,296.528 190.5,288.5C 193.951,285.096 197.951,283.429 202.5,283.5C 205.107,292.693 206.607,302.027 207,311.5C 206.617,312.056 206.117,312.389 205.5,312.5 Z"/></g>
<g><path style="opacity:1" fill="#6c716c" d="M 319.5,304.5 C 317.235,298.646 313.735,297.979 309,302.5C 305.918,310.187 304.752,318.187 305.5,326.5C 309.135,325.886 312.802,325.552 316.5,325.5C 316.334,321.154 316.501,316.821 317,312.5C 317.383,311.944 317.883,311.611 318.5,311.5C 319.469,319.748 319.802,328.082 319.5,336.5C 320.589,345.687 322.589,354.687 325.5,363.5C 321.301,364.494 316.967,364.661 312.5,364C 313.614,365.57 314.947,366.903 316.5,368C 320.5,368.833 324.5,369.667 328.5,370.5C 331.498,373.308 330.831,374.641 326.5,374.5C 321.062,373.02 315.728,371.353 310.5,369.5C 303.046,350.522 300.379,330.856 302.5,310.5C 303.133,295.558 310.799,287.725 325.5,287C 322.582,292.091 321.082,297.591 321,303.5C 320.617,304.056 320.117,304.389 319.5,304.5 Z"/></g>
<g><path style="opacity:1" fill="#969697" d="M 355.5,281.5 C 357.265,280.539 359.265,280.205 361.5,280.5C 361.82,283.898 361.487,287.232 360.5,290.5C 359.063,287.286 357.397,284.286 355.5,281.5 Z"/></g>
<g><path style="opacity:1" fill="#c3c3c3" d="M 401.5,277.5 C 401.539,278.583 401.873,279.583 402.5,280.5C 398.228,283.98 393.561,286.813 388.5,289C 385.32,292.196 381.653,294.529 377.5,296C 373.778,299.911 369.445,302.744 364.5,304.5C 363.875,301.03 364.875,298.196 367.5,296C 377.5,289.333 387.5,282.667 397.5,276C 399.352,275.227 400.686,275.727 401.5,277.5 Z"/></g>
<g><path style="opacity:1" fill="#868585" d="M 213.5,268.5 C 247.077,272.077 264.41,290.744 265.5,324.5C 263.5,324.5 261.5,324.5 259.5,324.5C 259.699,317.925 258.532,311.592 256,305.5C 247.674,285.649 232.84,275.649 211.5,275.5C 213.148,273.544 213.815,271.211 213.5,268.5 Z"/></g>
<g><path style="opacity:1" fill="#848485" d="M 401.5,277.5 C 403.779,278.868 404.446,280.702 403.5,283C 391.167,291.167 378.833,299.333 366.5,307.5C 365.575,306.643 364.908,305.643 364.5,304.5C 369.445,302.744 373.778,299.911 377.5,296C 381.653,294.529 385.32,292.196 388.5,289C 393.561,286.813 398.228,283.98 402.5,280.5C 401.873,279.583 401.539,278.583 401.5,277.5 Z"/></g>
<g><path style="opacity:1" fill="#b3b4b4" d="M 460.5,284.5 C 461.942,285.82 462.608,287.486 462.5,289.5C 462.5,290.167 462.5,290.833 462.5,291.5C 460.011,291.298 457.677,291.798 455.5,293C 445.322,300.356 435.322,307.856 425.5,315.5C 425.215,313.712 425.548,312.045 426.5,310.5C 438.155,302.168 449.489,293.502 460.5,284.5 Z"/></g>
<g><path style="opacity:1" fill="#727272" d="M 296.5,291.5 C 299.355,290.197 302.355,290.197 305.5,291.5C 303.442,295.343 301.775,299.343 300.5,303.5C 299.456,299.29 298.123,295.29 296.5,291.5 Z"/></g>
<g><path style="opacity:1" fill="#101010" d="M 460.5,293.5 C 462.028,293.517 462.528,294.184 462,295.5C 450.833,304 439.667,312.5 428.5,321C 427.563,321.692 426.897,321.525 426.5,320.5C 437.43,311.03 448.763,302.03 460.5,293.5 Z"/></g>
<g><path style="opacity:1" fill="#a8a8a9" d="M 217.5,281.5 C 215.843,290.756 214.843,300.089 214.5,309.5C 213.5,309.5 212.5,309.5 211.5,309.5C 211.784,307.585 211.451,305.919 210.5,304.5C 209.396,296.541 208.729,288.541 208.5,280.5C 211.713,280.19 214.713,280.523 217.5,281.5 Z"/></g>
<g><path style="opacity:1" fill="#070707" d="M 355.5,299.5 C 355.649,300.552 355.483,301.552 355,302.5C 353.561,299.397 351.727,296.564 349.5,294C 346.833,293.333 344.167,293.333 341.5,294C 340.101,295.062 339.101,296.395 338.5,298C 344.182,305.879 347.182,314.713 347.5,324.5C 347.827,332.612 347.16,340.612 345.5,348.5C 344.041,352.871 342.375,357.204 340.5,361.5C 336.457,356.995 333.957,351.662 333,345.5C 332.07,333.506 331.737,321.506 332,309.5C 332.815,301.692 336.315,295.526 342.5,291C 349.073,290.463 353.407,293.296 355.5,299.5 Z"/></g>
<g><path style="opacity:1" fill="#504f4f" d="M 217.5,281.5 C 220.166,281.933 222.832,282.433 225.5,283C 227.18,283.347 228.18,284.347 228.5,286C 224.274,293.618 220.441,301.452 217,309.5C 214.959,310.423 212.792,310.756 210.5,310.5C 210.5,308.5 210.5,306.5 210.5,304.5C 211.451,305.919 211.784,307.585 211.5,309.5C 212.5,309.5 213.5,309.5 214.5,309.5C 214.843,300.089 215.843,290.756 217.5,281.5 Z"/></g>
<g><path style="opacity:1" fill="#a8a9a9" d="M 240.5,290.5 C 234.189,297.814 227.856,305.147 221.5,312.5C 220.711,312.217 220.044,311.717 219.5,311C 224.379,303.411 228.879,295.578 233,287.5C 234.049,286.483 235.216,286.316 236.5,287C 237.705,288.376 239.038,289.542 240.5,290.5 Z"/></g>
<g><path style="opacity:1" fill="#2a2b2a" d="M 333.5,284.5 C 333.833,284.5 334.167,284.5 334.5,284.5C 330.104,295.417 327.271,306.75 326,318.5C 325.505,316.527 325.338,314.527 325.5,312.5C 325.7,302.352 328.367,293.018 333.5,284.5 Z"/></g>
<g><path style="opacity:1" fill="#6a6a6b" d="M 408.5,287.5 C 410.942,287.354 411.609,288.187 410.5,290C 396.246,299.71 382.079,309.543 368,319.5C 367.837,317.613 368.671,316.113 370.5,315C 383.411,306.057 396.077,296.89 408.5,287.5 Z"/></g>
<g><path style="opacity:1" fill="#a6a7a7" d="M 190.5,288.5 C 195.511,296.528 200.511,304.528 205.5,312.5C 205.189,313.478 204.522,314.145 203.5,314.5C 197.149,307.984 190.983,301.317 185,294.5C 185.495,291.495 187.328,289.495 190.5,288.5 Z"/></g>
<g><path style="opacity:1" fill="#575857" d="M 240.5,290.5 C 242.099,292.604 243.932,294.604 246,296.5C 247.289,298.055 247.956,299.721 248,301.5C 240.078,306.546 231.911,311.213 223.5,315.5C 222.575,314.643 221.908,313.643 221.5,312.5C 227.856,305.147 234.189,297.814 240.5,290.5 Z"/></g>
<g><path style="opacity:1" fill="#484949" d="M 355.5,299.5 C 356.458,301.302 357.125,303.302 357.5,305.5C 356.876,305.917 356.543,306.584 356.5,307.5C 358.067,313.399 358.733,319.399 358.5,325.5C 354.881,324.756 351.215,324.423 347.5,324.5C 347.182,314.713 344.182,305.879 338.5,298C 339.101,296.395 340.101,295.062 341.5,294C 344.167,293.333 346.833,293.333 349.5,294C 351.727,296.564 353.561,299.397 355,302.5C 355.483,301.552 355.649,300.552 355.5,299.5 Z"/></g>
<g><path style="opacity:1" fill="#595958" d="M 200.5,320.5 C 192.027,316.451 183.36,312.784 174.5,309.5C 175.753,305.389 177.753,301.723 180.5,298.5C 187.81,303.976 194.977,309.643 202,315.5C 202.203,317.391 201.703,319.057 200.5,320.5 Z"/></g>
<g><path style="opacity:1" fill="#888988" d="M 462.5,291.5 C 461.833,292.167 461.167,292.833 460.5,293.5C 448.763,302.03 437.43,311.03 426.5,320.5C 425.508,320.672 424.842,320.338 424.5,319.5C 424.5,318.833 424.5,318.167 424.5,317.5C 425.338,317.158 425.672,316.492 425.5,315.5C 435.322,307.856 445.322,300.356 455.5,293C 457.677,291.798 460.011,291.298 462.5,291.5 Z"/></g>
<g><path style="opacity:1" fill="#686968" d="M 462.5,289.5 C 464.379,291.915 464.713,294.582 463.5,297.5C 450.167,307.167 436.833,316.833 423.5,326.5C 422.702,324.019 423.035,321.686 424.5,319.5C 424.842,320.338 425.508,320.672 426.5,320.5C 426.897,321.525 427.563,321.692 428.5,321C 439.667,312.5 450.833,304 462,295.5C 462.528,294.184 462.028,293.517 460.5,293.5C 461.167,292.833 461.833,292.167 462.5,291.5C 462.5,290.833 462.5,290.167 462.5,289.5 Z"/></g>
<g><path style="opacity:1" fill="#b6b7b7" d="M 333.5,284.5 C 328.367,293.018 325.7,302.352 325.5,312.5C 324.674,316.982 324.174,321.649 324,326.5C 323.329,325.748 322.496,325.414 321.5,325.5C 321.5,322.833 321.5,320.167 321.5,317.5C 321.206,305.342 324.04,294.008 330,283.5C 331.74,281.046 333.907,279.546 336.5,279C 335.242,280.741 334.242,282.574 333.5,284.5 Z"/></g>
<g><path style="opacity:1" fill="#b4b4b4" d="M 386.5,309.5 C 400.71,317.3 407.543,328.966 407,344.5C 406.283,347.215 404.783,349.382 402.5,351C 405.971,355.439 408.804,360.272 411,365.5C 412.945,378.828 412.945,392.161 411,405.5C 410.79,408.234 409.956,410.734 408.5,413C 395.01,416.356 381.343,418.023 367.5,418C 365.714,417.215 364.214,416.049 363,414.5C 364.5,401.64 361,390.473 352.5,381C 360.886,371.856 365.386,361.023 366,348.5C 366.616,340.163 367.282,331.829 368,323.5C 374.089,318.557 380.256,313.891 386.5,309.5 Z"/></g>
<g><path style="opacity:1" fill="#bababa" d="M 251.5,308.5 C 252.404,309.209 252.737,310.209 252.5,311.5C 252.5,312.5 252.5,313.5 252.5,314.5C 249.167,314.833 245.833,315.167 242.5,315.5C 236.114,315.385 235.947,314.051 242,311.5C 244.135,310.873 246.302,310.373 248.5,310C 248.167,309.667 247.833,309.333 247.5,309C 248.793,308.51 250.127,308.343 251.5,308.5 Z"/></g>
<g><path style="opacity:1" fill="#a9aaaa" d="M 174.5,309.5 C 183.36,312.784 192.027,316.451 200.5,320.5C 199.726,321.147 198.726,321.48 197.5,321.5C 189.598,319.524 181.598,318.191 173.5,317.5C 173.279,314.721 173.612,312.054 174.5,309.5 Z"/></g>
<g><path style="opacity:1" fill="#bbbbbb" d="M 319.5,304.5 C 319.326,306.861 318.993,309.194 318.5,311.5C 317.883,311.611 317.383,311.944 317,312.5C 316.501,316.821 316.334,321.154 316.5,325.5C 312.802,325.552 309.135,325.886 305.5,326.5C 304.752,318.187 305.918,310.187 309,302.5C 313.735,297.979 317.235,298.646 319.5,304.5 Z"/></g>
<g><path style="opacity:1" fill="#525151" d="M 252.5,311.5 C 253.486,315.97 253.819,320.637 253.5,325.5C 244.889,325.484 236.389,324.484 228,322.5C 226.624,322.316 225.791,321.649 225.5,320.5C 231.299,318.971 236.966,317.304 242.5,315.5C 245.833,315.167 249.167,314.833 252.5,314.5C 252.5,313.5 252.5,312.5 252.5,311.5 Z"/></g>
<g><path style="opacity:1" fill="#b0b1b1" d="M 220.5,316.5 C 220.66,318.199 220.494,319.866 220,321.5C 219.082,319.624 217.582,318.624 215.5,318.5C 214.5,318.5 213.5,318.5 212.5,318.5C 210.533,318.261 208.699,318.594 207,319.5C 206.517,318.552 206.351,317.552 206.5,316.5C 208.056,314.012 210.389,313.012 213.5,313.5C 216.611,313.012 218.944,314.012 220.5,316.5 Z"/></g>
<g><path style="opacity:1" fill="#929292" d="M 251.5,308.5 C 250.127,308.343 248.793,308.51 247.5,309C 247.833,309.333 248.167,309.667 248.5,310C 246.302,310.373 244.135,310.873 242,311.5C 235.947,314.051 236.114,315.385 242.5,315.5C 236.966,317.304 231.299,318.971 225.5,320.5C 224.402,319.603 224.402,318.77 225.5,318C 233.594,313.619 241.927,309.786 250.5,306.5C 251.298,306.957 251.631,307.624 251.5,308.5 Z"/></g>
<g><path style="opacity:1" fill="#b6b6b6" d="M 286.5,308.5 C 288.881,314.643 289.047,320.976 287,327.5C 286.5,321.175 286.334,314.842 286.5,308.5 Z"/></g>
<g><path style="opacity:1" fill="#171717" d="M 357.5,305.5 C 359.945,311.299 361.278,317.465 361.5,324C 360.85,332.49 360.35,340.99 360,349.5C 357.711,354.141 355.378,358.808 353,363.5C 350.255,366.238 347.088,366.904 343.5,365.5C 341.712,364.717 340.712,363.384 340.5,361.5C 342.255,362.072 343.922,362.906 345.5,364C 348.789,364.746 351.289,363.58 353,360.5C 354.998,356.67 356.498,352.67 357.5,348.5C 357.833,345.833 358.167,343.167 358.5,340.5C 359.833,335.5 359.833,330.5 358.5,325.5C 358.733,319.399 358.067,313.399 356.5,307.5C 356.543,306.584 356.876,305.917 357.5,305.5 Z"/></g>
<g><path style="opacity:1" fill="#828282" d="M 115.5,324.5 C 109.682,323.349 104.015,323.349 98.5,324.5C 88.1613,324.334 77.828,324.5 67.5,325C 66.944,325.383 66.6107,325.883 66.5,326.5C 65.6618,326.158 65.3284,325.492 65.5,324.5C 65.6107,323.883 65.944,323.383 66.5,323C 82.8418,322.64 99.1751,322.14 115.5,321.5C 115.5,322.5 115.5,323.5 115.5,324.5 Z"/></g>
<g><path style="opacity:1" fill="#717171" d="M 488.5,329.5 C 474.941,329.786 461.441,330.786 448,332.5C 446.319,332.608 445.152,333.275 444.5,334.5C 441.033,331.198 437.7,327.698 434.5,324C 451.75,321.462 469.084,320.129 486.5,320C 487.866,322.997 488.533,326.164 488.5,329.5 Z"/></g>
<g><path style="opacity:1" fill="#060606" d="M 477.5,321.5 C 480.167,321.5 482.833,321.5 485.5,321.5C 485.5,323.167 485.5,324.833 485.5,326.5C 470.831,328.279 456.164,328.946 441.5,328.5C 440.269,327.349 440.269,326.183 441.5,325C 453.683,324.157 465.683,322.991 477.5,321.5 Z"/></g>
<g><path style="opacity:1" fill="#535253" d="M 505.5,325.5 C 504.167,325.5 502.833,325.5 501.5,325.5C 501.414,323.323 500.747,321.323 499.5,319.5C 504.926,317.64 506.926,319.64 505.5,325.5 Z"/></g>
<g><path style="opacity:1" fill="#4b4b4b" d="M 41.5,332.5 C 40.3933,330.031 38.3933,329.031 35.5,329.5C 35.6511,324.351 38.3178,322.018 43.5,322.5C 43.4512,326.078 42.7846,329.411 41.5,332.5 Z"/></g>
<g><path style="opacity:1" fill="#4e4f4e" d="M 50.5,330.5 C 49.1667,330.5 47.8333,330.5 46.5,330.5C 46.838,328.146 47.338,325.813 48,323.5C 49.6354,322.151 51.1354,322.318 52.5,324C 51.6028,326.087 50.9361,328.254 50.5,330.5 Z"/></g>
<g><path style="opacity:1" fill="#494949" d="M 98.5,324.5 C 104.015,323.349 109.682,323.349 115.5,324.5C 110.109,328.3 106.442,333.3 104.5,339.5C 104.5,337.5 104.5,335.5 104.5,333.5C 95.3178,333.173 86.3178,333.507 77.5,334.5C 73.0444,334.354 68.3777,334.354 63.5,334.5C 63.7526,330.96 64.4192,327.627 65.5,324.5C 65.3284,325.492 65.6618,326.158 66.5,326.5C 66.5,327.5 66.5,328.5 66.5,329.5C 79.8177,330.535 93.1511,330.369 106.5,329C 107.743,327.846 108.743,326.512 109.5,325C 105.848,324.501 102.182,324.335 98.5,324.5 Z"/></g>
<g><path style="opacity:1" fill="#525152" d="M 496.5,325.5 C 495.167,325.5 493.833,325.5 492.5,325.5C 491.833,323.167 491.167,320.833 490.5,318.5C 495.495,318.125 497.495,320.458 496.5,325.5 Z"/></g>
<g><path style="opacity:1" fill="#616161" d="M 516.5,324.5 C 513.918,324.025 511.918,324.692 510.5,326.5C 509.79,324.107 509.123,321.607 508.5,319C 513.771,317.144 516.438,318.977 516.5,324.5 Z"/></g>
<g><path style="opacity:1" fill="#505050" d="M 58.5,332.5 C 58.5,331.5 58.5,330.5 58.5,329.5C 57.5,329.5 56.5,329.5 55.5,329.5C 54.9102,324.49 56.9102,322.824 61.5,324.5C 60.0827,327.092 59.0827,329.759 58.5,332.5 Z"/></g>
<g><path style="opacity:1" fill="#070706" d="M 98.5,324.5 C 102.182,324.335 105.848,324.501 109.5,325C 108.743,326.512 107.743,327.846 106.5,329C 93.1511,330.369 79.8177,330.535 66.5,329.5C 66.5,328.5 66.5,327.5 66.5,326.5C 66.6107,325.883 66.944,325.383 67.5,325C 77.828,324.5 88.1613,324.334 98.5,324.5 Z"/></g>
<g><path style="opacity:1" fill="#494949" d="M 200.5,327.5 C 191.751,329.582 183.085,331.915 174.5,334.5C 173.833,330.5 173.167,326.5 172.5,322.5C 181.585,322.417 190.585,323.25 199.5,325C 200.252,325.671 200.586,326.504 200.5,327.5 Z"/></g>
<g><path style="opacity:1" fill="#807f81" d="M 206.5,316.5 C 206.351,317.552 206.517,318.552 207,319.5C 208.699,318.594 210.533,318.261 212.5,318.5C 208.95,319.981 207.783,322.648 209,326.5C 215.521,329.995 218.187,327.995 217,320.5C 216.283,319.956 215.783,319.289 215.5,318.5C 217.582,318.624 219.082,319.624 220,321.5C 220.494,319.866 220.66,318.199 220.5,316.5C 223.351,321.433 223.017,326.266 219.5,331C 213.163,334.933 207.997,333.766 204,327.5C 203.333,324.833 203.333,322.167 204,319.5C 204.377,318.058 205.21,317.058 206.5,316.5 Z"/></g>
<g><path style="opacity:1" fill="#121212" d="M 212.5,318.5 C 213.5,318.5 214.5,318.5 215.5,318.5C 215.783,319.289 216.283,319.956 217,320.5C 218.187,327.995 215.521,329.995 209,326.5C 207.783,322.648 208.95,319.981 212.5,318.5 Z"/></g>
<g><path style="opacity:1" fill="#4e4e50" d="M 211.5,321.5 C 215.019,321.187 216.353,322.52 215.5,325.5C 211.134,327.134 209.801,325.801 211.5,321.5 Z"/></g>
<g><path style="opacity:1" fill="#494949" d="M 321.5,326.5 C 323.408,326.883 324.908,327.883 326,329.5C 326.497,332.146 326.664,334.813 326.5,337.5C 326.486,352.065 330.819,365.398 339.5,377.5C 337.037,377.219 334.87,376.219 333,374.5C 330.626,371.086 328.793,367.419 327.5,363.5C 323.133,351.573 321.133,339.239 321.5,326.5 Z"/></g>
<g><path style="opacity:1" fill="#868586" d="M 347.5,324.5 C 351.215,324.423 354.881,324.756 358.5,325.5C 359.833,330.5 359.833,335.5 358.5,340.5C 358.5,339.5 358.5,338.5 358.5,337.5C 357.5,337.5 356.5,337.5 355.5,337.5C 354.673,342.153 351.84,344.486 347,344.5C 346.333,345.5 346.333,346.5 347,347.5C 348.622,348.099 350.122,348.766 351.5,349.5C 349.379,349.675 347.379,349.341 345.5,348.5C 347.16,340.612 347.827,332.612 347.5,324.5 Z"/></g>
<g><path style="opacity:1" fill="#b1b2b2" d="M 492.5,325.5 C 493.833,325.5 495.167,325.5 496.5,325.5C 498.074,327.102 498.741,329.102 498.5,331.5C 497.907,335.66 496.24,336.327 493.5,333.5C 493.167,330.833 492.833,328.167 492.5,325.5 Z"/></g>
<g><path style="opacity:1" fill="#bababa" d="M 516.5,324.5 C 517.468,326.607 517.802,328.941 517.5,331.5C 517.631,332.376 517.298,333.043 516.5,333.5C 514.997,332.948 513.331,332.948 511.5,333.5C 511.552,331.097 511.219,328.764 510.5,326.5C 511.918,324.692 513.918,324.025 516.5,324.5 Z"/></g>
<g><path style="opacity:1" fill="#c4c4c4" d="M 259.5,324.5 C 261.5,324.5 263.5,324.5 265.5,324.5C 265.251,334.771 262.251,344.104 256.5,352.5C 254.379,352.675 252.379,352.341 250.5,351.5C 254.538,342.719 257.538,333.719 259.5,324.5 Z"/></g>
<g><path style="opacity:1" fill="#b1b1b1" d="M 501.5,325.5 C 502.833,325.5 504.167,325.5 505.5,325.5C 507.04,327.838 507.706,330.505 507.5,333.5C 505.956,333.711 504.29,333.711 502.5,333.5C 501.908,330.873 501.575,328.206 501.5,325.5 Z"/></g>
<g><path style="opacity:1" fill="#c6c7c8" d="M 35.5,329.5 C 38.3933,329.031 40.3933,330.031 41.5,332.5C 41.5,333.5 41.5,334.5 41.5,335.5C 40.5869,338.3 38.5869,339.633 35.5,339.5C 35.5,338.167 35.5,336.833 35.5,335.5C 35.5,333.5 35.5,331.5 35.5,329.5 Z"/></g>
<g><path style="opacity:1" fill="#9d9d9d" d="M 228.5,326.5 C 236.797,328.293 245.131,329.959 253.5,331.5C 253.122,333.921 252.455,336.254 251.5,338.5C 250.262,339.412 248.928,339.579 247.5,339C 241.52,335.176 235.186,332.176 228.5,330C 227.5,329.167 226.5,328.333 225.5,327.5C 226.325,326.614 227.325,326.281 228.5,326.5 Z"/></g>
<g><path style="opacity:1" fill="#b4b4b4" d="M 488.5,329.5 C 489.461,331.265 489.795,333.265 489.5,335.5C 486.402,336.821 482.902,337.488 479,337.5C 468.509,338.166 458.009,338.5 447.5,338.5C 446.512,337.205 445.512,335.872 444.5,334.5C 445.152,333.275 446.319,332.608 448,332.5C 461.441,330.786 474.941,329.786 488.5,329.5 Z"/></g>
<g><path style="opacity:1" fill="#6a6f6a" d="M 498.5,331.5 C 499.117,331.611 499.617,331.944 500,332.5C 501,344.167 502,355.833 503,367.5C 503.824,376.676 503.657,385.676 502.5,394.5C 502.826,390.116 502.492,385.783 501.5,381.5C 500.522,381.977 499.689,382.643 499,383.5C 498.824,387.688 498.324,391.688 497.5,395.5C 497.667,381.496 497.5,367.496 497,353.5C 496.248,346.729 495.081,340.062 493.5,333.5C 496.24,336.327 497.907,335.66 498.5,331.5 Z"/></g>
<g><path style="opacity:1" fill="#6d716c" d="M 517.5,331.5 C 522.262,354.112 523.762,377.112 522,400.5C 521.297,405.284 518.463,407.284 513.5,406.5C 516.462,382.072 515.796,357.739 511.5,333.5C 513.331,332.948 514.997,332.948 516.5,333.5C 517.298,333.043 517.631,332.376 517.5,331.5 Z"/></g>
<g><path style="opacity:1" fill="#989899" d="M 200.5,327.5 C 201.791,328.542 201.791,329.708 200.5,331C 192.605,333.947 184.938,337.447 177.5,341.5C 175.544,339.649 174.544,337.316 174.5,334.5C 183.085,331.915 191.751,329.582 200.5,327.5 Z"/></g>
<g><path style="opacity:1" fill="#c0c0c0" d="M 46.5,330.5 C 47.8333,330.5 49.1667,330.5 50.5,330.5C 49.5975,333.391 49.2641,336.391 49.5,339.5C 48.1667,339.5 46.8333,339.5 45.5,339.5C 45.5,338.5 45.5,337.5 45.5,336.5C 45.2053,334.265 45.5386,332.265 46.5,330.5 Z"/></g>
<g><path style="opacity:1" fill="#6a6f6a" d="M 502.5,333.5 C 504.29,333.711 505.956,333.711 507.5,333.5C 509.846,347.77 511.513,362.27 512.5,377C 512.541,384.381 511.875,391.547 510.5,398.5C 510.665,395.482 510.498,392.482 510,389.5C 508.45,390.591 507.283,391.924 506.5,393.5C 507.415,373.321 506.082,353.321 502.5,333.5 Z"/></g>
<g><path style="opacity:1" fill="#bfbfc0" d="M 55.5,329.5 C 56.5,329.5 57.5,329.5 58.5,329.5C 58.5,330.5 58.5,331.5 58.5,332.5C 58.5,334.167 58.5,335.833 58.5,337.5C 57.065,339.401 55.3983,339.734 53.5,338.5C 53.6997,335.37 54.3664,332.37 55.5,329.5 Z"/></g>
<g><path style="opacity:1" fill="#afafaf" d="M 77.5,334.5 C 86.1731,334.334 94.8397,334.5 103.5,335C 102.833,335.333 102.167,335.667 101.5,336C 88.8698,337.189 76.2031,338.022 63.5,338.5C 63.5,337.167 63.5,335.833 63.5,334.5C 68.3777,334.354 73.0444,334.354 77.5,334.5 Z"/></g>
<g><path style="opacity:1" fill="#6c716c" d="M 35.5,335.5 C 35.5,336.833 35.5,338.167 35.5,339.5C 38.5869,339.633 40.5869,338.3 41.5,335.5C 38.9225,356.85 38.9225,378.184 41.5,399.5C 39.5,399.5 37.5,399.5 35.5,399.5C 35.5,400.833 35.5,402.167 35.5,403.5C 35.1667,403.5 34.8333,403.5 34.5,403.5C 32.9568,384.202 32.4568,364.869 33,345.5C 33.5348,341.962 34.3681,338.628 35.5,335.5 Z"/></g>
<g><path style="opacity:1" fill="#6e736e" d="M 77.5,334.5 C 86.3178,333.507 95.3178,333.173 104.5,333.5C 104.5,335.5 104.5,337.5 104.5,339.5C 99.5678,356.032 99.2345,372.698 103.5,389.5C 106.317,393.467 108.317,397.801 109.5,402.5C 94.4619,401.85 79.7952,402.517 65.5,404.5C 65.1667,405.167 64.8333,405.833 64.5,406.5C 63.2101,405.942 62.3768,404.942 62,403.5C 60.4291,382.197 60.0958,360.863 61,339.5C 61.9853,337.825 62.8186,336.158 63.5,334.5C 63.5,335.833 63.5,337.167 63.5,338.5C 76.2031,338.022 88.8698,337.189 101.5,336C 102.167,335.667 102.833,335.333 103.5,335C 94.8397,334.5 86.1731,334.334 77.5,334.5 Z"/></g>
<g><path style="opacity:1" fill="#4b4a4a" d="M 228.5,326.5 C 227.325,326.281 226.325,326.614 225.5,327.5C 226.5,328.333 227.5,329.167 228.5,330C 235.186,332.176 241.52,335.176 247.5,339C 248.928,339.579 250.262,339.412 251.5,338.5C 249.515,342.456 247.015,346.122 244,349.5C 236.864,343.365 230.031,336.865 223.5,330C 224.38,328.644 224.714,327.144 224.5,325.5C 226.099,325.232 227.432,325.566 228.5,326.5 Z"/></g>
<g><path style="opacity:1" fill="#707470" d="M 489.5,335.5 C 491.011,337.476 491.844,339.809 492,342.5C 494.407,358.455 494.907,374.455 493.5,390.5C 492.549,391.919 492.216,393.585 492.5,395.5C 478.44,398.539 464.107,400.205 449.5,400.5C 459.09,379.626 458.423,358.959 447.5,338.5C 458.009,338.5 468.509,338.166 479,337.5C 482.902,337.488 486.402,336.821 489.5,335.5 Z"/></g>
<g><path style="opacity:1" fill="#6e746e" d="M 58.5,337.5 C 55.8736,358.498 55.8736,379.498 58.5,400.5C 56.847,400.66 55.5137,401.326 54.5,402.5C 50.9679,381.212 50.6346,359.879 53.5,338.5C 55.3983,339.734 57.065,339.401 58.5,337.5 Z"/></g>
<g><path style="opacity:1" fill="#6b706b" d="M 45.5,336.5 C 45.5,337.5 45.5,338.5 45.5,339.5C 46.8333,339.5 48.1667,339.5 49.5,339.5C 47.9195,359.879 48.2528,380.212 50.5,400.5C 48.9008,399.438 47.2341,399.438 45.5,400.5C 43.4984,380.269 42.9984,359.935 44,339.5C 44.2321,338.263 44.7321,337.263 45.5,336.5 Z"/></g>
<g><path style="opacity:1" fill="#908f90" d="M 163.5,311.5 C 163.5,313.167 163.5,314.833 163.5,316.5C 165.167,316.5 166.833,316.5 168.5,316.5C 167.253,343.68 179.587,361.347 205.5,369.5C 205.389,370.117 205.056,370.617 204.5,371C 201.518,371.498 198.518,371.665 195.5,371.5C 170.076,359.316 159.409,339.316 163.5,311.5 Z"/></g>
<g><path style="opacity:1" fill="#272726" d="M 321.5,317.5 C 321.5,320.167 321.5,322.833 321.5,325.5C 321.5,325.833 321.5,326.167 321.5,326.5C 321.133,339.239 323.133,351.573 327.5,363.5C 326.833,363.5 326.167,363.5 325.5,363.5C 322.589,354.687 320.589,345.687 319.5,336.5C 320.167,330.167 320.833,323.833 321.5,317.5 Z"/></g>
<g><path style="opacity:1" fill="#abacab" d="M 358.5,340.5 C 358.167,343.167 357.833,345.833 357.5,348.5C 355.621,349.341 353.621,349.675 351.5,349.5C 350.122,348.766 348.622,348.099 347,347.5C 346.333,346.5 346.333,345.5 347,344.5C 351.84,344.486 354.673,342.153 355.5,337.5C 356.5,337.5 357.5,337.5 358.5,337.5C 358.5,338.5 358.5,339.5 358.5,340.5 Z"/></g>
<g><path style="opacity:1" fill="#aaabab" d="M 237.5,356.5 C 235.61,356.703 234.11,356.037 233,354.5C 228.591,347.295 224.091,340.295 219.5,333.5C 220.117,333.389 220.617,333.056 221,332.5C 227.699,338.864 234.032,345.531 240,352.5C 240.279,354.412 239.446,355.746 237.5,356.5 Z"/></g>
<g><path style="opacity:1" fill="#313130" d="M 326.5,337.5 C 328.452,351.971 333.452,365.304 341.5,377.5C 340.833,377.5 340.167,377.5 339.5,377.5C 330.819,365.398 326.486,352.065 326.5,337.5 Z"/></g>
<g><path style="opacity:1" fill="#818181" d="M 126.5,334.5 C 127.944,339.693 129.277,345.027 130.5,350.5C 129.5,350.5 128.5,350.5 127.5,350.5C 126.658,345.213 126.324,339.88 126.5,334.5 Z"/></g>
<g><path style="opacity:1" fill="#494949" d="M 205.5,333.5 C 199.032,340.426 193.032,347.76 187.5,355.5C 183.543,353.072 181.043,349.738 180,345.5C 187.403,340.436 195.07,335.77 203,331.5C 203.995,332.066 204.828,332.733 205.5,333.5 Z"/></g>
<g><path style="opacity:1" fill="#737274" d="M 413.5,335.5 C 414.483,339.298 414.817,343.298 414.5,347.5C 420.167,347.5 425.833,347.5 431.5,347.5C 425.69,348.49 419.69,348.823 413.5,348.5C 413.5,344.167 413.5,339.833 413.5,335.5 Z"/></g>
<g><path style="opacity:1" fill="#565655" d="M 219.5,333.5 C 224.091,340.295 228.591,347.295 233,354.5C 234.11,356.037 235.61,356.703 237.5,356.5C 233.356,359.568 228.689,361.568 223.5,362.5C 221.341,353.532 219.341,344.532 217.5,335.5C 217.855,334.478 218.522,333.811 219.5,333.5 Z"/></g>
<g><path style="opacity:1" fill="#616161" d="M 431.5,350.5 C 435.884,350.174 440.217,350.508 444.5,351.5C 434.204,352.956 423.871,353.456 413.5,353C 419.659,352.25 425.659,351.417 431.5,350.5 Z"/></g>
<g><path style="opacity:1" fill="#525352" d="M 212.5,336.5 C 211.083,345.76 210.416,355.094 210.5,364.5C 205.583,364.748 201.25,363.415 197.5,360.5C 201.861,353.112 205.694,345.446 209,337.5C 210.011,336.663 211.178,336.33 212.5,336.5 Z"/></g>
<g><path style="opacity:1" fill="#6b6b6b" d="M 345.5,348.5 C 347.379,349.341 349.379,349.675 351.5,349.5C 353.621,349.675 355.621,349.341 357.5,348.5C 356.498,352.67 354.998,356.67 353,360.5C 351.289,363.58 348.789,364.746 345.5,364C 343.922,362.906 342.255,362.072 340.5,361.5C 342.375,357.204 344.041,352.871 345.5,348.5 Z"/></g>
<g><path style="opacity:1" fill="#212020" d="M 470.5,349.5 C 478.614,348.06 484.947,350.727 489.5,357.5C 489.333,357.833 489.167,358.167 489,358.5C 481.925,350.072 474.259,349.405 466,356.5C 460.798,366.361 463.298,373.527 473.5,378C 465.739,377.236 461.739,372.903 461.5,365C 461.547,358.067 464.547,352.9 470.5,349.5 Z"/></g>
<g><path style="opacity:1" fill="#050405" d="M 472.5,353.5 C 483.486,352.653 487.986,357.653 486,368.5C 483.081,374.025 478.581,375.858 472.5,374C 467.15,370.629 465.317,365.796 467,359.5C 468.769,357.383 470.602,355.383 472.5,353.5 Z"/></g>
<g><path style="opacity:1" fill="#7c7d7d" d="M 108.5,354.5 C 116.174,354.334 123.841,354.5 131.5,355C 123.542,356.39 115.542,356.723 107.5,356C 108.056,355.617 108.389,355.117 108.5,354.5 Z"/></g>
<g><path style="opacity:1" fill="#989998" d="M 205.5,333.5 C 206.289,333.783 206.956,334.283 207.5,335C 202.621,342.589 198.121,350.422 194,358.5C 191.161,359.336 188.995,358.336 187.5,355.5C 193.032,347.76 199.032,340.426 205.5,333.5 Z"/></g>
<g><path style="opacity:1" fill="#a5a6a5" d="M 212.5,336.5 C 213.649,336.791 214.316,337.624 214.5,339C 216.693,347.643 217.36,356.31 216.5,365C 214.288,365.789 212.288,365.622 210.5,364.5C 210.416,355.094 211.083,345.76 212.5,336.5 Z"/></g>
<g><path style="opacity:1" fill="#3d3e3d" d="M 89.5,361.5 C 85.1874,356.074 79.5208,354.074 72.5,355.5C 78.5339,352.202 84.3673,353.535 90,359.5C 90.6917,360.437 90.525,361.103 89.5,361.5 Z"/></g>
<g><path style="opacity:1" fill="#b9bab9" d="M 446.5,357.5 C 446.5,358.833 446.5,360.167 446.5,361.5C 439.825,361.334 433.158,361.5 426.5,362C 423.325,361.947 420.658,362.78 418.5,364.5C 416.415,362.316 415.415,359.649 415.5,356.5C 423.851,356.622 432.184,356.289 440.5,355.5C 442.952,355.539 444.952,356.206 446.5,357.5 Z"/></g>
<g><path style="opacity:1" fill="#060606" d="M 81.5,378.5 C 78.4816,378.665 75.4816,378.498 72.5,378C 70.2941,375.963 68.2941,373.797 66.5,371.5C 65.7953,364.216 68.962,359.883 76,358.5C 86.6129,359.059 90.2796,364.393 87,374.5C 85.549,376.464 83.7157,377.797 81.5,378.5 Z"/></g>
<g><path style="opacity:1" fill="#bcbcbc" d="M 285.5,330.5 C 286.472,336.432 285.972,342.432 284,348.5C 279.083,362.217 270.917,373.383 259.5,382C 241.018,391.193 221.685,393.859 201.5,390C 197.419,388.529 193.419,386.862 189.5,385C 195.803,386.091 202.136,387.425 208.5,389C 225.663,390.703 241.33,386.703 255.5,377C 262.032,370.802 268.199,364.302 274,357.5C 278.937,348.961 282.77,339.961 285.5,330.5 Z"/></g>
<g><path style="opacity:1" fill="#7a7a79" d="M 297.5,355.5 C 298.675,355.281 299.675,355.614 300.5,356.5C 302.167,359.833 303.833,363.167 305.5,366.5C 301.555,367.491 297.555,367.824 293.5,367.5C 294.27,363.297 295.604,359.297 297.5,355.5 Z"/></g>
<g><path style="opacity:1" fill="#b4b4b5" d="M 116.5,360.5 C 121.844,360.334 127.177,360.501 132.5,361C 132.957,361.414 133.291,361.914 133.5,362.5C 124.758,363.313 116.258,363.98 108,364.5C 107.517,363.552 107.351,362.552 107.5,361.5C 110.287,360.523 113.287,360.19 116.5,360.5 Z"/></g>
<g><path style="opacity:1" fill="#888988" d="M 446.5,357.5 C 447.468,359.607 447.802,361.941 447.5,364.5C 437.833,364.5 428.167,364.5 418.5,364.5C 420.658,362.78 423.325,361.947 426.5,362C 433.158,361.5 439.825,361.334 446.5,361.5C 446.5,360.167 446.5,358.833 446.5,357.5 Z"/></g>
<g><path style="opacity:1" fill="#818181" d="M 250.5,351.5 C 252.379,352.341 254.379,352.675 256.5,352.5C 240.515,373.163 220.182,379.497 195.5,371.5C 198.518,371.665 201.518,371.498 204.5,371C 205.056,370.617 205.389,370.117 205.5,369.5C 213.656,369.991 221.656,369.158 229.5,367C 237.242,362.8 244.242,357.633 250.5,351.5 Z"/></g>
<g><path style="opacity:1" fill="#949495" d="M 116.5,360.5 C 121.985,359.348 127.651,359.182 133.5,360C 134.966,361.552 135.966,363.386 136.5,365.5C 126.528,366.61 116.528,367.276 106.5,367.5C 106.205,365.265 106.539,363.265 107.5,361.5C 107.351,362.552 107.517,363.552 108,364.5C 116.258,363.98 124.758,363.313 133.5,362.5C 133.291,361.914 132.957,361.414 132.5,361C 127.177,360.501 121.844,360.334 116.5,360.5 Z"/></g>
<g><path style="opacity:1" fill="#2c2d2c" d="M 291.5,336.5 C 291.029,348.404 287.196,359.404 280,369.5C 272.309,379.09 263.143,386.924 252.5,393C 249.57,394.318 246.57,394.985 243.5,395C 269.262,383.712 285.262,364.212 291.5,336.5 Z"/></g>
<g><path style="opacity:1" fill="#8b8b8b" d="M 72.5,355.5 C 79.5208,354.074 85.1874,356.074 89.5,361.5C 91.1783,364.552 91.845,367.885 91.5,371.5C 90.5,376.5 87.5,379.5 82.5,380.5C 79.8229,381.614 77.1562,381.614 74.5,380.5C 76.9688,379.832 79.3021,379.165 81.5,378.5C 83.7157,377.797 85.549,376.464 87,374.5C 90.2796,364.393 86.6129,359.059 76,358.5C 68.962,359.883 65.7953,364.216 66.5,371.5C 65.7611,371.631 65.0944,371.464 64.5,371C 64.6845,364.462 67.3512,359.295 72.5,355.5 Z"/></g>
<g><path style="opacity:1" fill="#b5b5b4" d="M 176.5,368.5 C 176.383,370.484 177.05,372.15 178.5,373.5C 178.291,374.086 177.957,374.586 177.5,375C 178.833,376.333 180.167,377.667 181.5,379C 173.964,376.448 168.131,371.615 164,364.5C 163.018,363.241 162.685,361.908 163,360.5C 165.527,363.939 168.527,366.939 172,369.5C 172.667,366.833 173.333,366.833 174,369.5C 174.671,368.748 175.504,368.414 176.5,368.5 Z"/></g>
<g><path style="opacity:1" fill="#b4b4b4" d="M 294.5,371.5 C 299.844,371.334 305.177,371.501 310.5,372C 311.672,372.419 312.672,373.085 313.5,374C 296.763,379.274 284.596,389.774 277,405.5C 264.106,437.742 255.606,471.075 251.5,505.5C 252.431,518.6 259.431,526.1 272.5,528C 287.941,529.371 302.941,527.371 317.5,522C 332.047,516.392 346.047,509.726 359.5,502C 377.359,490.572 394.692,478.405 411.5,465.5C 417.655,471.651 420.988,479.151 421.5,488C 420.638,497.889 417.138,506.722 411,514.5C 387.211,537.82 359.377,554.654 327.5,565C 298.995,574.133 270.328,574.799 241.5,567C 204.248,550.51 185.248,521.843 184.5,481C 185.885,458.103 190.885,435.77 199.5,414C 217.847,416.414 235.347,413.581 252,405.5C 254.527,407.097 257.194,408.43 260,409.5C 265.608,406.224 270.942,402.557 276,398.5C 276.5,397 277,395.5 277.5,394C 276.507,391.547 276.34,389.047 277,386.5C 280.882,382.286 284.382,377.786 287.5,373C 290.036,372.814 292.369,372.314 294.5,371.5 Z"/></g>
<g><path style="opacity:1" fill="#4a4a4a" d="M 436.5,371.5 C 440.833,371.5 445.167,371.5 449.5,371.5C 449.5,372.5 449.5,373.5 449.5,374.5C 439.145,374.832 428.812,374.499 418.5,373.5C 424.654,372.833 430.654,372.167 436.5,371.5 Z"/></g>
<g><path style="opacity:1" fill="#696868" d="M 134.5,377.5 C 132.167,377.5 129.833,377.5 127.5,377.5C 120.679,376.671 113.679,376.171 106.5,376C 112.334,374.852 118.334,374.352 124.5,374.5C 130.167,374.667 135.833,374.833 141.5,375C 138.639,374.97 136.305,375.803 134.5,377.5 Z"/></g>
<g><path style="opacity:1" fill="#000000" d="M 127.5,377.5 C 129.833,377.5 132.167,377.5 134.5,377.5C 134.833,378.5 135.5,379.167 136.5,379.5C 139.186,387.207 142.686,394.54 147,401.5C 147.278,400.584 147.778,399.918 148.5,399.5C 148.776,402.719 150.109,405.385 152.5,407.5C 158.219,417.389 165.886,425.556 175.5,432C 178.727,434.112 182.06,435.945 185.5,437.5C 186.064,443.89 185.23,450.224 183,456.5C 182.578,458.426 181.411,459.426 179.5,459.5C 165.985,450.161 153.485,439.495 142,427.5C 137,420.833 132,414.167 127,407.5C 124.583,402.06 122.083,396.726 119.5,391.5C 117.913,387.977 117.413,384.31 118,380.5C 121.051,378.981 124.218,377.981 127.5,377.5 Z"/></g>
<g><path style="opacity:1" fill="#3a3a3a" d="M 91.5,371.5 C 92.709,373.435 92.5423,375.435 91,377.5C 88.5367,379.797 85.7034,381.463 82.5,382.5C 81.537,382.03 81.537,381.363 82.5,380.5C 87.5,379.5 90.5,376.5 91.5,371.5 Z"/></g>
<g><path style="opacity:1" fill="#d3d4d3" d="M 333.5,380.5 C 334.833,381.167 334.833,381.167 333.5,380.5 Z"/></g>
<g><path style="opacity:1" fill="#3a3a3b" d="M 136.5,379.5 C 137.167,379.5 137.833,379.5 138.5,379.5C 140.781,386.729 144.115,393.396 148.5,399.5C 147.778,399.918 147.278,400.584 147,401.5C 142.686,394.54 139.186,387.207 136.5,379.5 Z"/></g>
<g><path style="opacity:1" fill="#b4b4b4" d="M 502.5,394.5 C 502.795,396.735 502.461,398.735 501.5,400.5C 500.167,400.5 498.833,400.5 497.5,400.5C 497.5,398.833 497.5,397.167 497.5,395.5C 498.324,391.688 498.824,387.688 499,383.5C 499.689,382.643 500.522,381.977 501.5,381.5C 502.492,385.783 502.826,390.116 502.5,394.5 Z"/></g>
<g><path style="opacity:1" fill="#bfbebf" d="M 510.5,398.5 C 510.672,399.492 510.338,400.158 509.5,400.5C 508.5,400.5 507.5,400.5 506.5,400.5C 506.5,398.167 506.5,395.833 506.5,393.5C 507.283,391.924 508.45,390.591 510,389.5C 510.498,392.482 510.665,395.482 510.5,398.5 Z"/></g>
<g><path style="opacity:1" fill="#bfbfbf" d="M 516.5,393.5 C 520.068,393.759 521.401,395.759 520.5,399.5C 518.833,399.5 517.167,399.5 515.5,399.5C 515.325,397.379 515.659,395.379 516.5,393.5 Z"/></g>
<g><path style="opacity:1" fill="#c1c2c1" d="M 41.5,399.5 C 41.5,400.167 41.5,400.833 41.5,401.5C 41.7852,403.288 41.4519,404.955 40.5,406.5C 38.2406,406.216 36.5739,405.216 35.5,403.5C 35.5,402.167 35.5,400.833 35.5,399.5C 37.5,399.5 39.5,399.5 41.5,399.5 Z"/></g>
<g><path style="opacity:1" fill="#b7b8b7" d="M 492.5,395.5 C 492.5,396.833 492.5,398.167 492.5,399.5C 478.145,400.586 463.812,401.919 449.5,403.5C 449.5,402.5 449.5,401.5 449.5,400.5C 464.107,400.205 478.44,398.539 492.5,395.5 Z"/></g>
<g><path style="opacity:1" fill="#525252" d="M 493.5,390.5 C 493.792,396.295 493.125,401.961 491.5,407.5C 486.185,408.387 480.852,409.054 475.5,409.5C 473.052,408.527 470.385,408.194 467.5,408.5C 473.98,407.348 480.646,406.515 487.5,406C 488.167,405.667 488.833,405.333 489.5,405C 475.005,404.816 460.672,406.15 446.5,409C 448.81,409.497 451.143,409.663 453.5,409.5C 454.568,410.434 455.901,410.768 457.5,410.5C 452.354,411.551 447.021,412.218 441.5,412.5C 441.351,411.448 441.517,410.448 442,409.5C 444.518,406.429 447.018,403.429 449.5,400.5C 449.5,401.5 449.5,402.5 449.5,403.5C 463.812,401.919 478.145,400.586 492.5,399.5C 492.5,398.167 492.5,396.833 492.5,395.5C 492.216,393.585 492.549,391.919 493.5,390.5 Z"/></g>
<g><path style="opacity:1" fill="#707071" d="M 271.5,391.5 C 273.405,393.049 273.739,394.882 272.5,397C 267.956,398.882 263.956,401.549 260.5,405C 257.56,405.886 256.56,405.052 257.5,402.5C 262.962,399.778 267.629,396.111 271.5,391.5 Z"/></g>
<g><path style="opacity:1" fill="#454545" d="M 41.5,401.5 C 42.2979,404.171 42.9646,407.004 43.5,410C 41.3532,413.152 38.8532,413.318 36,410.5C 34.7978,408.323 34.2978,405.989 34.5,403.5C 34.8333,403.5 35.1667,403.5 35.5,403.5C 36.5739,405.216 38.2406,406.216 40.5,406.5C 41.4519,404.955 41.7852,403.288 41.5,401.5 Z"/></g>
<g><path style="opacity:1" fill="#626262" d="M 497.5,400.5 C 498.833,400.5 500.167,400.5 501.5,400.5C 501.662,402.527 501.495,404.527 501,406.5C 499.644,407.38 498.144,407.714 496.5,407.5C 496.993,405.194 497.326,402.861 497.5,400.5 Z"/></g>
<g><path style="opacity:1" fill="#656363" d="M 506.5,400.5 C 507.5,400.5 508.5,400.5 509.5,400.5C 509.5,402.5 509.5,404.5 509.5,406.5C 508.167,406.5 506.833,406.5 505.5,406.5C 505.833,404.5 506.167,402.5 506.5,400.5 Z"/></g>
<g><path style="opacity:1" fill="#bbbbba" d="M 58.5,400.5 C 59.404,401.209 59.7373,402.209 59.5,403.5C 58.8166,405.176 57.4832,405.843 55.5,405.5C 54.596,404.791 54.2627,403.791 54.5,402.5C 55.5137,401.326 56.847,400.66 58.5,400.5 Z"/></g>
<g><path style="opacity:1" fill="#9e9e9e" d="M 109.5,402.5 C 95.2048,404.483 80.5381,405.15 65.5,404.5C 79.7952,402.517 94.4619,401.85 109.5,402.5 Z"/></g>
<g><path style="opacity:1" fill="#c4c3c5" d="M 50.5,400.5 C 50.5,401.5 50.5,402.5 50.5,403.5C 49.8166,405.176 48.4832,405.843 46.5,405.5C 45.5489,404.081 45.2155,402.415 45.5,400.5C 47.2341,399.438 48.9008,399.438 50.5,400.5 Z"/></g>
<g><path style="opacity:1" fill="#101010" d="M 467.5,408.5 C 462.833,408.833 458.167,409.167 453.5,409.5C 451.143,409.663 448.81,409.497 446.5,409C 460.672,406.15 475.005,404.816 489.5,405C 488.833,405.333 488.167,405.667 487.5,406C 480.646,406.515 473.98,407.348 467.5,408.5 Z"/></g>
<g><path style="opacity:1" fill="#6c6b6a" d="M 171.5,403.5 C 177.585,406.876 183.919,409.709 190.5,412C 189.335,413.084 188.002,413.917 186.5,414.5C 181.915,412.305 177.249,410.305 172.5,408.5C 171.548,406.955 171.215,405.288 171.5,403.5 Z"/></g>
<g><path style="opacity:1" fill="#525253" d="M 50.5,403.5 C 51.6572,406.273 52.3239,409.273 52.5,412.5C 50.8333,412.5 49.1667,412.5 47.5,412.5C 47.552,410.097 47.2186,407.764 46.5,405.5C 48.4832,405.843 49.8166,405.176 50.5,403.5 Z"/></g>
<g><path style="opacity:1" fill="#555555" d="M 59.5,403.5 C 60.2537,406.023 60.9204,408.689 61.5,411.5C 59.9547,412.452 58.288,412.785 56.5,412.5C 56.552,410.097 56.2186,407.764 55.5,405.5C 57.4832,405.843 58.8166,405.176 59.5,403.5 Z"/></g>
<g><path style="opacity:1" fill="#080808" d="M 106.5,407.5 C 109.022,407.128 111.022,407.961 112.5,410C 98.1705,410.5 83.8372,410.667 69.5,410.5C 69.1961,409.85 68.8627,409.183 68.5,408.5C 81.1492,407.501 93.8158,407.168 106.5,407.5 Z"/></g>
<g><path style="opacity:1" fill="#4c4d4c" d="M 64.5,406.5 C 65.7498,406.577 66.5831,407.244 67,408.5C 73.4276,407.188 80.0942,406.521 87,406.5C 93.6755,406.5 100.175,406.834 106.5,407.5C 93.8158,407.168 81.1492,407.501 68.5,408.5C 68.8627,409.183 69.1961,409.85 69.5,410.5C 68.209,410.263 67.209,410.596 66.5,411.5C 65.6908,409.972 65.0241,408.306 64.5,406.5 Z"/></g>
<g><path style="opacity:1" fill="#7a7a7c" d="M 467.5,408.5 C 470.385,408.194 473.052,408.527 475.5,409.5C 469.529,410.241 463.529,410.575 457.5,410.5C 455.901,410.768 454.568,410.434 453.5,409.5C 458.167,409.167 462.833,408.833 467.5,408.5 Z"/></g>
<g><path style="opacity:1" fill="#828182" d="M 109.5,402.5 C 111.934,405.438 114.601,408.271 117.5,411C 100.503,411.5 83.5033,411.667 66.5,411.5C 67.209,410.596 68.209,410.263 69.5,410.5C 83.8372,410.667 98.1705,410.5 112.5,410C 111.022,407.961 109.022,407.128 106.5,407.5C 100.175,406.834 93.6755,406.5 87,406.5C 80.0942,406.521 73.4276,407.188 67,408.5C 66.5831,407.244 65.7498,406.577 64.5,406.5C 64.8333,405.833 65.1667,405.167 65.5,404.5C 80.5381,405.15 95.2048,404.483 109.5,402.5 Z"/></g>
<g><path style="opacity:1" fill="#959695" d="M 37.5,416.5 C 38.8333,417.167 38.8333,417.167 37.5,416.5 Z"/></g>
<g><path style="opacity:1" fill="#463e3f" d="M 152.5,407.5 C 158.59,413.453 164.59,419.62 170.5,426C 175.134,429.812 180.134,432.979 185.5,435.5C 185.5,436.167 185.5,436.833 185.5,437.5C 182.06,435.945 178.727,434.112 175.5,432C 165.886,425.556 158.219,417.389 152.5,407.5 Z"/></g>
</svg>
